<?xml version="1.0" encoding="UTF-8" standalone="no"?>
<!DOCTYPE svg PUBLIC "-//W3C//DTD SVG 1.1//EN"
 "http://www.w3.org/Graphics/SVG/1.1/DTD/svg11.dtd">
<!-- Generated by graphviz version 2.28.0 (20110601.1231)
 -->
<!-- Title: controllers_diagram Pages: 1 -->
<svg width="1007pt" height="1003pt"
 viewBox="0.00 0.00 1007.00 1003.00" xmlns="http://www.w3.org/2000/svg" xmlns:xlink="http://www.w3.org/1999/xlink">
<g id="graph1" class="graph" transform="scale(1 1) rotate(0) translate(4 999)">
<title>controllers_diagram</title>
<polygon fill="white" stroke="white" points="-4,5 -4,-999 1004,-999 1004,5 -4,5"/>
<!-- _diagram_info -->
<g id="node1" class="node"><title>_diagram_info</title>
<text text-anchor="start" x="8" y="-86.6" font-family="Times,serif" font-size="13.00">Controllers diagram</text>
<text text-anchor="start" x="8" y="-72.6" font-family="Times,serif" font-size="13.00">Date: Jan 03 2012 &#45; 12:29</text>
<text text-anchor="start" x="8" y="-58.6" font-family="Times,serif" font-size="13.00">Migration version: 20111202095320</text>
<text text-anchor="start" x="8" y="-44.6" font-family="Times,serif" font-size="13.00">Generated by RailRoady 1.0.4</text>
<text text-anchor="start" x="8" y="-30.6" font-family="Times,serif" font-size="13.00">http://railroady.prestonlee.com</text>
</g>
<!-- Admin::AdminController -->
<g id="node2" class="node"><title>Admin::AdminController</title>
<polyline fill="none" stroke="black" points="771,-0.5 964,-0.5 "/>
<path fill="none" stroke="black" d="M964,-0.5C970,-0.5 976,-6.5 976,-12.5"/>
<polyline fill="none" stroke="black" points="976,-12.5 976,-170.5 "/>
<path fill="none" stroke="black" d="M976,-170.5C976,-176.5 970,-182.5 964,-182.5"/>
<polyline fill="none" stroke="black" points="964,-182.5 771,-182.5 "/>
<path fill="none" stroke="black" d="M771,-182.5C765,-182.5 759,-176.5 759,-170.5"/>
<polyline fill="none" stroke="black" points="759,-170.5 759,-12.5 "/>
<path fill="none" stroke="black" d="M759,-12.5C759,-6.5 765,-0.5 771,-0.5"/>
<text text-anchor="middle" x="867.5" y="-167.3" font-family="Times,serif" font-size="14.00">Admin::AdminController</text>
<polyline fill="none" stroke="black" points="759,-159.5 976,-159.5 "/>
<text text-anchor="start" x="767" y="-144.3" font-family="Times,serif" font-size="14.00">_callback_after_114</text>
<text text-anchor="start" x="767" y="-129.3" font-family="Times,serif" font-size="14.00">_one_time_conditions_valid_111?</text>
<text text-anchor="start" x="767" y="-114.3" font-family="Times,serif" font-size="14.00">_one_time_conditions_valid_117?</text>
<polyline fill="none" stroke="black" points="759,-106.5 976,-106.5 "/>
<text text-anchor="start" x="767" y="-91.3" font-family="Times,serif" font-size="14.00">admin_editing_language</text>
<text text-anchor="start" x="767" y="-76.3" font-family="Times,serif" font-size="14.00">check_role</text>
<text text-anchor="start" x="767" y="-61.3" font-family="Times,serif" font-size="14.00">check_roles</text>
<text text-anchor="start" x="767" y="-46.3" font-family="Times,serif" font-size="14.00">set_layout</text>
<polyline fill="none" stroke="black" points="759,-38.5 976,-38.5 "/>
<text text-anchor="start" x="767" y="-23.3" font-family="Times,serif" font-size="14.00">_layout</text>
<text text-anchor="start" x="767" y="-8.3" font-family="Times,serif" font-size="14.00">_run_process_action_callbacks</text>
</g>
<!-- Admin::ArticleLayoutsController -->
<g id="node3" class="node"><title>Admin::ArticleLayoutsController</title>
<polyline fill="none" stroke="black" points="518,-0.5 711,-0.5 "/>
<path fill="none" stroke="black" d="M711,-0.5C717,-0.5 723,-6.5 723,-12.5"/>
<polyline fill="none" stroke="black" points="723,-12.5 723,-186.5 "/>
<path fill="none" stroke="black" d="M723,-186.5C723,-192.5 717,-198.5 711,-198.5"/>
<polyline fill="none" stroke="black" points="711,-198.5 518,-198.5 "/>
<path fill="none" stroke="black" d="M518,-198.5C512,-198.5 506,-192.5 506,-186.5"/>
<polyline fill="none" stroke="black" points="506,-186.5 506,-12.5 "/>
<path fill="none" stroke="black" d="M506,-12.5C506,-6.5 512,-0.5 518,-0.5"/>
<text text-anchor="middle" x="614.5" y="-183.3" font-family="Times,serif" font-size="14.00">Admin::ArticleLayoutsController</text>
<polyline fill="none" stroke="black" points="506,-175.5 723,-175.5 "/>
<text text-anchor="start" x="514" y="-160.3" font-family="Times,serif" font-size="14.00">_callback_before_118</text>
<text text-anchor="start" x="514" y="-145.3" font-family="Times,serif" font-size="14.00">_callback_before_120</text>
<text text-anchor="start" x="514" y="-130.3" font-family="Times,serif" font-size="14.00">_one_time_conditions_valid_119?</text>
<text text-anchor="start" x="514" y="-115.3" font-family="Times,serif" font-size="14.00">_one_time_conditions_valid_121?</text>
<text text-anchor="start" x="514" y="-100.3" font-family="Times,serif" font-size="14.00">apply_layout</text>
<text text-anchor="start" x="514" y="-85.3" font-family="Times,serif" font-size="14.00">edit</text>
<text text-anchor="start" x="514" y="-70.3" font-family="Times,serif" font-size="14.00">set_editing_language</text>
<polyline fill="none" stroke="black" points="506,-62.5 723,-62.5 "/>
<polyline fill="none" stroke="black" points="506,-38.5 723,-38.5 "/>
<text text-anchor="start" x="514" y="-23.3" font-family="Times,serif" font-size="14.00">_layout</text>
<text text-anchor="start" x="514" y="-8.3" font-family="Times,serif" font-size="14.00">_run_process_action_callbacks</text>
</g>
<!-- Admin::ArticlesController -->
<g id="node4" class="node"><title>Admin::ArticlesController</title>
<polyline fill="none" stroke="black" points="541,-552.5 734,-552.5 "/>
<path fill="none" stroke="black" d="M734,-552.5C740,-552.5 746,-558.5 746,-564.5"/>
<polyline fill="none" stroke="black" points="746,-564.5 746,-783.5 "/>
<path fill="none" stroke="black" d="M746,-783.5C746,-789.5 740,-795.5 734,-795.5"/>
<polyline fill="none" stroke="black" points="734,-795.5 541,-795.5 "/>
<path fill="none" stroke="black" d="M541,-795.5C535,-795.5 529,-789.5 529,-783.5"/>
<polyline fill="none" stroke="black" points="529,-783.5 529,-564.5 "/>
<path fill="none" stroke="black" d="M529,-564.5C529,-558.5 535,-552.5 541,-552.5"/>
<text text-anchor="middle" x="637.5" y="-780.3" font-family="Times,serif" font-size="14.00">Admin::ArticlesController</text>
<polyline fill="none" stroke="black" points="529,-772.5 746,-772.5 "/>
<text text-anchor="start" x="537" y="-757.3" font-family="Times,serif" font-size="14.00">_callback_before_122</text>
<text text-anchor="start" x="537" y="-742.3" font-family="Times,serif" font-size="14.00">_callback_before_124</text>
<text text-anchor="start" x="537" y="-727.3" font-family="Times,serif" font-size="14.00">_one_time_conditions_valid_123?</text>
<text text-anchor="start" x="537" y="-712.3" font-family="Times,serif" font-size="14.00">_one_time_conditions_valid_125?</text>
<text text-anchor="start" x="537" y="-697.3" font-family="Times,serif" font-size="14.00">create</text>
<text text-anchor="start" x="537" y="-682.3" font-family="Times,serif" font-size="14.00">destroy</text>
<text text-anchor="start" x="537" y="-667.3" font-family="Times,serif" font-size="14.00">edit</text>
<text text-anchor="start" x="537" y="-652.3" font-family="Times,serif" font-size="14.00">index</text>
<text text-anchor="start" x="537" y="-637.3" font-family="Times,serif" font-size="14.00">new</text>
<text text-anchor="start" x="537" y="-622.3" font-family="Times,serif" font-size="14.00">update</text>
<polyline fill="none" stroke="black" points="529,-614.5 746,-614.5 "/>
<polyline fill="none" stroke="black" points="529,-590.5 746,-590.5 "/>
<text text-anchor="start" x="537" y="-575.3" font-family="Times,serif" font-size="14.00">_layout</text>
<text text-anchor="start" x="537" y="-560.3" font-family="Times,serif" font-size="14.00">_run_process_action_callbacks</text>
</g>
<!-- Admin::CategoriesController -->
<g id="node5" class="node"><title>Admin::CategoriesController</title>
<polyline fill="none" stroke="black" points="288,-598.5 481,-598.5 "/>
<path fill="none" stroke="black" d="M481,-598.5C487,-598.5 493,-604.5 493,-610.5"/>
<polyline fill="none" stroke="black" points="493,-610.5 493,-844.5 "/>
<path fill="none" stroke="black" d="M493,-844.5C493,-850.5 487,-856.5 481,-856.5"/>
<polyline fill="none" stroke="black" points="481,-856.5 288,-856.5 "/>
<path fill="none" stroke="black" d="M288,-856.5C282,-856.5 276,-850.5 276,-844.5"/>
<polyline fill="none" stroke="black" points="276,-844.5 276,-610.5 "/>
<path fill="none" stroke="black" d="M276,-610.5C276,-604.5 282,-598.5 288,-598.5"/>
<text text-anchor="middle" x="384.5" y="-841.3" font-family="Times,serif" font-size="14.00">Admin::CategoriesController</text>
<polyline fill="none" stroke="black" points="276,-833.5 493,-833.5 "/>
<text text-anchor="start" x="284" y="-818.3" font-family="Times,serif" font-size="14.00">_callback_before_126</text>
<text text-anchor="start" x="284" y="-803.3" font-family="Times,serif" font-size="14.00">_callback_before_128</text>
<text text-anchor="start" x="284" y="-788.3" font-family="Times,serif" font-size="14.00">_one_time_conditions_valid_127?</text>
<text text-anchor="start" x="284" y="-773.3" font-family="Times,serif" font-size="14.00">_one_time_conditions_valid_129?</text>
<text text-anchor="start" x="284" y="-758.3" font-family="Times,serif" font-size="14.00">create</text>
<text text-anchor="start" x="284" y="-743.3" font-family="Times,serif" font-size="14.00">destroy</text>
<text text-anchor="start" x="284" y="-728.3" font-family="Times,serif" font-size="14.00">edit</text>
<text text-anchor="start" x="284" y="-713.3" font-family="Times,serif" font-size="14.00">index</text>
<text text-anchor="start" x="284" y="-698.3" font-family="Times,serif" font-size="14.00">new</text>
<text text-anchor="start" x="284" y="-683.3" font-family="Times,serif" font-size="14.00">quick_create</text>
<text text-anchor="start" x="284" y="-668.3" font-family="Times,serif" font-size="14.00">update</text>
<polyline fill="none" stroke="black" points="276,-660.5 493,-660.5 "/>
<polyline fill="none" stroke="black" points="276,-636.5 493,-636.5 "/>
<text text-anchor="start" x="284" y="-621.3" font-family="Times,serif" font-size="14.00">_layout</text>
<text text-anchor="start" x="284" y="-606.3" font-family="Times,serif" font-size="14.00">_run_process_action_callbacks</text>
</g>
<!-- Admin::PagesController -->
<g id="node6" class="node"><title>Admin::PagesController</title>
<polyline fill="none" stroke="black" points="265,-230.5 458,-230.5 "/>
<path fill="none" stroke="black" d="M458,-230.5C464,-230.5 470,-236.5 470,-242.5"/>
<polyline fill="none" stroke="black" points="470,-242.5 470,-536.5 "/>
<path fill="none" stroke="black" d="M470,-536.5C470,-542.5 464,-548.5 458,-548.5"/>
<polyline fill="none" stroke="black" points="458,-548.5 265,-548.5 "/>
<path fill="none" stroke="black" d="M265,-548.5C259,-548.5 253,-542.5 253,-536.5"/>
<polyline fill="none" stroke="black" points="253,-536.5 253,-242.5 "/>
<path fill="none" stroke="black" d="M253,-242.5C253,-236.5 259,-230.5 265,-230.5"/>
<text text-anchor="middle" x="361.5" y="-533.3" font-family="Times,serif" font-size="14.00">Admin::PagesController</text>
<polyline fill="none" stroke="black" points="253,-525.5 470,-525.5 "/>
<text text-anchor="start" x="261" y="-510.3" font-family="Times,serif" font-size="14.00">_callback_before_130</text>
<text text-anchor="start" x="261" y="-495.3" font-family="Times,serif" font-size="14.00">_callback_before_132</text>
<text text-anchor="start" x="261" y="-480.3" font-family="Times,serif" font-size="14.00">_one_time_conditions_valid_131?</text>
<text text-anchor="start" x="261" y="-465.3" font-family="Times,serif" font-size="14.00">_one_time_conditions_valid_133?</text>
<text text-anchor="start" x="261" y="-450.3" font-family="Times,serif" font-size="14.00">apply_layout</text>
<text text-anchor="start" x="261" y="-435.3" font-family="Times,serif" font-size="14.00">create</text>
<text text-anchor="start" x="261" y="-420.3" font-family="Times,serif" font-size="14.00">destroy</text>
<text text-anchor="start" x="261" y="-405.3" font-family="Times,serif" font-size="14.00">edit</text>
<text text-anchor="start" x="261" y="-390.3" font-family="Times,serif" font-size="14.00">index</text>
<text text-anchor="start" x="261" y="-375.3" font-family="Times,serif" font-size="14.00">new</text>
<text text-anchor="start" x="261" y="-360.3" font-family="Times,serif" font-size="14.00">set_editing_language</text>
<text text-anchor="start" x="261" y="-345.3" font-family="Times,serif" font-size="14.00">show</text>
<text text-anchor="start" x="261" y="-330.3" font-family="Times,serif" font-size="14.00">sort</text>
<text text-anchor="start" x="261" y="-315.3" font-family="Times,serif" font-size="14.00">toggle</text>
<text text-anchor="start" x="261" y="-300.3" font-family="Times,serif" font-size="14.00">update</text>
<polyline fill="none" stroke="black" points="253,-292.5 470,-292.5 "/>
<polyline fill="none" stroke="black" points="253,-268.5 470,-268.5 "/>
<text text-anchor="start" x="261" y="-253.3" font-family="Times,serif" font-size="14.00">_layout</text>
<text text-anchor="start" x="261" y="-238.3" font-family="Times,serif" font-size="14.00">_run_process_action_callbacks</text>
</g>
<!-- Admin::SettingsController -->
<g id="node7" class="node"><title>Admin::SettingsController</title>
<polyline fill="none" stroke="black" points="12,-138.5 205,-138.5 "/>
<path fill="none" stroke="black" d="M205,-138.5C211,-138.5 217,-144.5 217,-150.5"/>
<polyline fill="none" stroke="black" points="217,-150.5 217,-324.5 "/>
<path fill="none" stroke="black" d="M217,-324.5C217,-330.5 211,-336.5 205,-336.5"/>
<polyline fill="none" stroke="black" points="205,-336.5 12,-336.5 "/>
<path fill="none" stroke="black" d="M12,-336.5C6,-336.5 0,-330.5 0,-324.5"/>
<polyline fill="none" stroke="black" points="0,-324.5 0,-150.5 "/>
<path fill="none" stroke="black" d="M0,-150.5C0,-144.5 6,-138.5 12,-138.5"/>
<text text-anchor="middle" x="108.5" y="-321.3" font-family="Times,serif" font-size="14.00">Admin::SettingsController</text>
<polyline fill="none" stroke="black" points="0,-313.5 217,-313.5 "/>
<text text-anchor="start" x="8" y="-298.3" font-family="Times,serif" font-size="14.00">_callback_before_134</text>
<text text-anchor="start" x="8" y="-283.3" font-family="Times,serif" font-size="14.00">_callback_before_136</text>
<text text-anchor="start" x="8" y="-268.3" font-family="Times,serif" font-size="14.00">_one_time_conditions_valid_135?</text>
<text text-anchor="start" x="8" y="-253.3" font-family="Times,serif" font-size="14.00">_one_time_conditions_valid_137?</text>
<text text-anchor="start" x="8" y="-238.3" font-family="Times,serif" font-size="14.00">edit</text>
<text text-anchor="start" x="8" y="-223.3" font-family="Times,serif" font-size="14.00">update</text>
<polyline fill="none" stroke="black" points="0,-215.5 217,-215.5 "/>
<polyline fill="none" stroke="black" points="0,-191.5 217,-191.5 "/>
<text text-anchor="start" x="8" y="-176.3" font-family="Times,serif" font-size="14.00">_layout</text>
<text text-anchor="start" x="8" y="-161.3" font-family="Times,serif" font-size="14.00">_run_process_action_callbacks</text>
<text text-anchor="start" x="8" y="-146.3" font-family="Times,serif" font-size="14.00">change_theme</text>
</g>
<!-- Admin::SnippetsController -->
<g id="node8" class="node"><title>Admin::SnippetsController</title>
<polyline fill="none" stroke="black" points="12,-391.5 205,-391.5 "/>
<path fill="none" stroke="black" d="M205,-391.5C211,-391.5 217,-397.5 217,-403.5"/>
<polyline fill="none" stroke="black" points="217,-403.5 217,-607.5 "/>
<path fill="none" stroke="black" d="M217,-607.5C217,-613.5 211,-619.5 205,-619.5"/>
<polyline fill="none" stroke="black" points="205,-619.5 12,-619.5 "/>
<path fill="none" stroke="black" d="M12,-619.5C6,-619.5 0,-613.5 0,-607.5"/>
<polyline fill="none" stroke="black" points="0,-607.5 0,-403.5 "/>
<path fill="none" stroke="black" d="M0,-403.5C0,-397.5 6,-391.5 12,-391.5"/>
<text text-anchor="middle" x="108.5" y="-604.3" font-family="Times,serif" font-size="14.00">Admin::SnippetsController</text>
<polyline fill="none" stroke="black" points="0,-596.5 217,-596.5 "/>
<text text-anchor="start" x="8" y="-581.3" font-family="Times,serif" font-size="14.00">_callback_before_138</text>
<text text-anchor="start" x="8" y="-566.3" font-family="Times,serif" font-size="14.00">_callback_before_140</text>
<text text-anchor="start" x="8" y="-551.3" font-family="Times,serif" font-size="14.00">_one_time_conditions_valid_139?</text>
<text text-anchor="start" x="8" y="-536.3" font-family="Times,serif" font-size="14.00">_one_time_conditions_valid_141?</text>
<text text-anchor="start" x="8" y="-521.3" font-family="Times,serif" font-size="14.00">destroy</text>
<text text-anchor="start" x="8" y="-506.3" font-family="Times,serif" font-size="14.00">edit</text>
<text text-anchor="start" x="8" y="-491.3" font-family="Times,serif" font-size="14.00">purge</text>
<text text-anchor="start" x="8" y="-476.3" font-family="Times,serif" font-size="14.00">sort</text>
<text text-anchor="start" x="8" y="-461.3" font-family="Times,serif" font-size="14.00">update</text>
<polyline fill="none" stroke="black" points="0,-453.5 217,-453.5 "/>
<polyline fill="none" stroke="black" points="0,-429.5 217,-429.5 "/>
<text text-anchor="start" x="8" y="-414.3" font-family="Times,serif" font-size="14.00">_layout</text>
<text text-anchor="start" x="8" y="-399.3" font-family="Times,serif" font-size="14.00">_run_process_action_callbacks</text>
</g>
<!-- Admin::UploadsController -->
<g id="node9" class="node"><title>Admin::UploadsController</title>
<polyline fill="none" stroke="black" points="771,-230.5 920,-230.5 "/>
<path fill="none" stroke="black" d="M920,-230.5C926,-230.5 932,-236.5 932,-242.5"/>
<polyline fill="none" stroke="black" points="932,-242.5 932,-401.5 "/>
<path fill="none" stroke="black" d="M932,-401.5C932,-407.5 926,-413.5 920,-413.5"/>
<polyline fill="none" stroke="black" points="920,-413.5 771,-413.5 "/>
<path fill="none" stroke="black" d="M771,-413.5C765,-413.5 759,-407.5 759,-401.5"/>
<polyline fill="none" stroke="black" points="759,-401.5 759,-242.5 "/>
<path fill="none" stroke="black" d="M759,-242.5C759,-236.5 765,-230.5 771,-230.5"/>
<text text-anchor="middle" x="845.5" y="-398.3" font-family="Times,serif" font-size="14.00">Admin::UploadsController</text>
<polyline fill="none" stroke="black" points="759,-390.5 932,-390.5 "/>
<text text-anchor="start" x="767" y="-375.3" font-family="Times,serif" font-size="14.00">create</text>
<text text-anchor="start" x="767" y="-360.3" font-family="Times,serif" font-size="14.00">destroy</text>
<text text-anchor="start" x="767" y="-345.3" font-family="Times,serif" font-size="14.00">edit</text>
<text text-anchor="start" x="767" y="-330.3" font-family="Times,serif" font-size="14.00">index</text>
<text text-anchor="start" x="767" y="-315.3" font-family="Times,serif" font-size="14.00">new</text>
<text text-anchor="start" x="767" y="-300.3" font-family="Times,serif" font-size="14.00">update</text>
<polyline fill="none" stroke="black" points="759,-292.5 932,-292.5 "/>
<polyline fill="none" stroke="black" points="759,-268.5 932,-268.5 "/>
<text text-anchor="start" x="767" y="-253.3" font-family="Times,serif" font-size="14.00">_layout</text>
<text text-anchor="start" x="767" y="-238.3" font-family="Times,serif" font-size="14.00">content_type_lookup</text>
</g>
<!-- Admin::UsersController -->
<g id="node10" class="node"><title>Admin::UsersController</title>
<polyline fill="none" stroke="black" points="35,-736.5 228,-736.5 "/>
<path fill="none" stroke="black" d="M228,-736.5C234,-736.5 240,-742.5 240,-748.5"/>
<polyline fill="none" stroke="black" points="240,-748.5 240,-982.5 "/>
<path fill="none" stroke="black" d="M240,-982.5C240,-988.5 234,-994.5 228,-994.5"/>
<polyline fill="none" stroke="black" points="228,-994.5 35,-994.5 "/>
<path fill="none" stroke="black" d="M35,-994.5C29,-994.5 23,-988.5 23,-982.5"/>
<polyline fill="none" stroke="black" points="23,-982.5 23,-748.5 "/>
<path fill="none" stroke="black" d="M23,-748.5C23,-742.5 29,-736.5 35,-736.5"/>
<text text-anchor="middle" x="131.5" y="-979.3" font-family="Times,serif" font-size="14.00">Admin::UsersController</text>
<polyline fill="none" stroke="black" points="23,-971.5 240,-971.5 "/>
<text text-anchor="start" x="31" y="-956.3" font-family="Times,serif" font-size="14.00">_callback_before_142</text>
<text text-anchor="start" x="31" y="-941.3" font-family="Times,serif" font-size="14.00">_callback_before_144</text>
<text text-anchor="start" x="31" y="-926.3" font-family="Times,serif" font-size="14.00">_one_time_conditions_valid_143?</text>
<text text-anchor="start" x="31" y="-911.3" font-family="Times,serif" font-size="14.00">_one_time_conditions_valid_145?</text>
<text text-anchor="start" x="31" y="-896.3" font-family="Times,serif" font-size="14.00">create</text>
<text text-anchor="start" x="31" y="-881.3" font-family="Times,serif" font-size="14.00">destroy</text>
<text text-anchor="start" x="31" y="-866.3" font-family="Times,serif" font-size="14.00">edit</text>
<text text-anchor="start" x="31" y="-851.3" font-family="Times,serif" font-size="14.00">index</text>
<text text-anchor="start" x="31" y="-836.3" font-family="Times,serif" font-size="14.00">new</text>
<text text-anchor="start" x="31" y="-821.3" font-family="Times,serif" font-size="14.00">toggle</text>
<text text-anchor="start" x="31" y="-806.3" font-family="Times,serif" font-size="14.00">update</text>
<polyline fill="none" stroke="black" points="23,-798.5 240,-798.5 "/>
<polyline fill="none" stroke="black" points="23,-774.5 240,-774.5 "/>
<text text-anchor="start" x="31" y="-759.3" font-family="Times,serif" font-size="14.00">_layout</text>
<text text-anchor="start" x="31" y="-744.3" font-family="Times,serif" font-size="14.00">_run_process_action_callbacks</text>
</g>
<!-- ApplicationController -->
<g id="node11" class="node"><title>ApplicationController</title>
<polyline fill="none" stroke="black" points="518,-253.5 711,-253.5 "/>
<path fill="none" stroke="black" d="M711,-253.5C717,-253.5 723,-259.5 723,-265.5"/>
<polyline fill="none" stroke="black" points="723,-265.5 723,-499.5 "/>
<path fill="none" stroke="black" d="M723,-499.5C723,-505.5 717,-511.5 711,-511.5"/>
<polyline fill="none" stroke="black" points="711,-511.5 518,-511.5 "/>
<path fill="none" stroke="black" d="M518,-511.5C512,-511.5 506,-505.5 506,-499.5"/>
<polyline fill="none" stroke="black" points="506,-499.5 506,-265.5 "/>
<path fill="none" stroke="black" d="M506,-265.5C506,-259.5 512,-253.5 518,-253.5"/>
<text text-anchor="middle" x="614.5" y="-496.3" font-family="Times,serif" font-size="14.00">ApplicationController</text>
<polyline fill="none" stroke="black" points="506,-488.5 723,-488.5 "/>
<text text-anchor="start" x="514" y="-473.3" font-family="Times,serif" font-size="14.00">_callback_before_108</text>
<text text-anchor="start" x="514" y="-458.3" font-family="Times,serif" font-size="14.00">_one_time_conditions_valid_103?</text>
<text text-anchor="start" x="514" y="-443.3" font-family="Times,serif" font-size="14.00">_one_time_conditions_valid_105?</text>
<text text-anchor="start" x="514" y="-428.3" font-family="Times,serif" font-size="14.00">_one_time_conditions_valid_107?</text>
<text text-anchor="start" x="514" y="-413.3" font-family="Times,serif" font-size="14.00">_one_time_conditions_valid_109?</text>
<polyline fill="none" stroke="black" points="506,-405.5 723,-405.5 "/>
<polyline fill="none" stroke="black" points="506,-381.5 723,-381.5 "/>
<text text-anchor="start" x="514" y="-366.3" font-family="Times,serif" font-size="14.00">_layout</text>
<text text-anchor="start" x="514" y="-351.3" font-family="Times,serif" font-size="14.00">_run_process_action_callbacks</text>
<text text-anchor="start" x="514" y="-336.3" font-family="Times,serif" font-size="14.00">_unmemoized_get_configuration</text>
<text text-anchor="start" x="514" y="-321.3" font-family="Times,serif" font-size="14.00">admin_area?</text>
<text text-anchor="start" x="514" y="-306.3" font-family="Times,serif" font-size="14.00">get_configuration</text>
<text text-anchor="start" x="514" y="-291.3" font-family="Times,serif" font-size="14.00">get_theme</text>
<text text-anchor="start" x="514" y="-276.3" font-family="Times,serif" font-size="14.00">render_error</text>
<text text-anchor="start" x="514" y="-261.3" font-family="Times,serif" font-size="14.00">set_locale</text>
</g>
<!-- ArticlesController -->
<g id="node12" class="node"><title>ArticlesController</title>
<polyline fill="none" stroke="black" points="794,-621.5 891,-621.5 "/>
<path fill="none" stroke="black" d="M891,-621.5C897,-621.5 903,-627.5 903,-633.5"/>
<polyline fill="none" stroke="black" points="903,-633.5 903,-732.5 "/>
<path fill="none" stroke="black" d="M903,-732.5C903,-738.5 897,-744.5 891,-744.5"/>
<polyline fill="none" stroke="black" points="891,-744.5 794,-744.5 "/>
<path fill="none" stroke="black" d="M794,-744.5C788,-744.5 782,-738.5 782,-732.5"/>
<polyline fill="none" stroke="black" points="782,-732.5 782,-633.5 "/>
<path fill="none" stroke="black" d="M782,-633.5C782,-627.5 788,-621.5 794,-621.5"/>
<text text-anchor="middle" x="842.5" y="-729.3" font-family="Times,serif" font-size="14.00">ArticlesController</text>
<polyline fill="none" stroke="black" points="782,-721.5 903,-721.5 "/>
<text text-anchor="start" x="790" y="-706.3" font-family="Times,serif" font-size="14.00">show</text>
<polyline fill="none" stroke="black" points="782,-698.5 903,-698.5 "/>
<polyline fill="none" stroke="black" points="782,-674.5 903,-674.5 "/>
<text text-anchor="start" x="790" y="-659.3" font-family="Times,serif" font-size="14.00">_layout</text>
<text text-anchor="start" x="790" y="-644.3" font-family="Times,serif" font-size="14.00">check_path</text>
<text text-anchor="start" x="790" y="-629.3" font-family="Times,serif" font-size="14.00">check_permission</text>
</g>
<!-- CommentsController -->
<g id="node13" class="node"><title>CommentsController</title>
<polyline fill="none" stroke="black" points="794,-782.5 909,-782.5 "/>
<path fill="none" stroke="black" d="M909,-782.5C915,-782.5 921,-788.5 921,-794.5"/>
<polyline fill="none" stroke="black" points="921,-794.5 921,-863.5 "/>
<path fill="none" stroke="black" d="M921,-863.5C921,-869.5 915,-875.5 909,-875.5"/>
<polyline fill="none" stroke="black" points="909,-875.5 794,-875.5 "/>
<path fill="none" stroke="black" d="M794,-875.5C788,-875.5 782,-869.5 782,-863.5"/>
<polyline fill="none" stroke="black" points="782,-863.5 782,-794.5 "/>
<path fill="none" stroke="black" d="M782,-794.5C782,-788.5 788,-782.5 794,-782.5"/>
<text text-anchor="middle" x="851.5" y="-860.3" font-family="Times,serif" font-size="14.00">CommentsController</text>
<polyline fill="none" stroke="black" points="782,-852.5 921,-852.5 "/>
<text text-anchor="start" x="790" y="-837.3" font-family="Times,serif" font-size="14.00">create</text>
<polyline fill="none" stroke="black" points="782,-829.5 921,-829.5 "/>
<polyline fill="none" stroke="black" points="782,-805.5 921,-805.5 "/>
<text text-anchor="start" x="790" y="-790.3" font-family="Times,serif" font-size="14.00">_layout</text>
</g>
<!-- SiteController -->
<g id="node14" class="node"><title>SiteController</title>
<polyline fill="none" stroke="black" points="265,-23.5 458,-23.5 "/>
<path fill="none" stroke="black" d="M458,-23.5C464,-23.5 470,-29.5 470,-35.5"/>
<polyline fill="none" stroke="black" points="470,-35.5 470,-179.5 "/>
<path fill="none" stroke="black" d="M470,-179.5C470,-185.5 464,-191.5 458,-191.5"/>
<polyline fill="none" stroke="black" points="458,-191.5 265,-191.5 "/>
<path fill="none" stroke="black" d="M265,-191.5C259,-191.5 253,-185.5 253,-179.5"/>
<polyline fill="none" stroke="black" points="253,-179.5 253,-35.5 "/>
<path fill="none" stroke="black" d="M253,-35.5C253,-29.5 259,-23.5 265,-23.5"/>
<text text-anchor="middle" x="361.5" y="-176.3" font-family="Times,serif" font-size="14.00">SiteController</text>
<polyline fill="none" stroke="black" points="253,-168.5 470,-168.5 "/>
<text text-anchor="start" x="261" y="-153.3" font-family="Times,serif" font-size="14.00">_callback_before_146</text>
<text text-anchor="start" x="261" y="-138.3" font-family="Times,serif" font-size="14.00">_one_time_conditions_valid_147?</text>
<text text-anchor="start" x="261" y="-123.3" font-family="Times,serif" font-size="14.00">show</text>
<polyline fill="none" stroke="black" points="253,-115.5 470,-115.5 "/>
<polyline fill="none" stroke="black" points="253,-91.5 470,-91.5 "/>
<text text-anchor="start" x="261" y="-76.3" font-family="Times,serif" font-size="14.00">_layout</text>
<text text-anchor="start" x="261" y="-61.3" font-family="Times,serif" font-size="14.00">_run_process_action_callbacks</text>
<text text-anchor="start" x="261" y="-46.3" font-family="Times,serif" font-size="14.00">check_language_enabled</text>
<text text-anchor="start" x="261" y="-31.3" font-family="Times,serif" font-size="14.00">check_path</text>
</g>
<!-- UsersController -->
<g id="node15" class="node"><title>UsersController</title>
<polyline fill="none" stroke="black" points="794,-460.5 987,-460.5 "/>
<path fill="none" stroke="black" d="M987,-460.5C993,-460.5 999,-466.5 999,-472.5"/>
<polyline fill="none" stroke="black" points="999,-472.5 999,-556.5 "/>
<path fill="none" stroke="black" d="M999,-556.5C999,-562.5 993,-568.5 987,-568.5"/>
<polyline fill="none" stroke="black" points="987,-568.5 794,-568.5 "/>
<path fill="none" stroke="black" d="M794,-568.5C788,-568.5 782,-562.5 782,-556.5"/>
<polyline fill="none" stroke="black" points="782,-556.5 782,-472.5 "/>
<path fill="none" stroke="black" d="M782,-472.5C782,-466.5 788,-460.5 794,-460.5"/>
<text text-anchor="middle" x="890.5" y="-553.3" font-family="Times,serif" font-size="14.00">UsersController</text>
<polyline fill="none" stroke="black" points="782,-545.5 999,-545.5 "/>
<text text-anchor="start" x="790" y="-530.3" font-family="Times,serif" font-size="14.00">_one_time_conditions_valid_149?</text>
<polyline fill="none" stroke="black" points="782,-522.5 999,-522.5 "/>
<polyline fill="none" stroke="black" points="782,-498.5 999,-498.5 "/>
<text text-anchor="start" x="790" y="-483.3" font-family="Times,serif" font-size="14.00">_layout</text>
<text text-anchor="start" x="790" y="-468.3" font-family="Times,serif" font-size="14.00">_run_process_action_callbacks</text>
</g>
</g>
</svg>
