<?xml version="1.0" encoding="UTF-8" standalone="no"?>
<!DOCTYPE svg PUBLIC "-//W3C//DTD SVG 1.1//EN"
 "http://www.w3.org/Graphics/SVG/1.1/DTD/svg11.dtd">
<!-- Generated by graphviz version 2.28.0 (20110722.1315)
 -->
<!-- Title: controllers_diagram Pages: 1 -->
<svg width="1017pt" height="957pt"
 viewBox="0.00 0.00 1017.00 957.00" xmlns="http://www.w3.org/2000/svg" xmlns:xlink="http://www.w3.org/1999/xlink">
<g id="graph1" class="graph" transform="scale(1 1) rotate(0) translate(4 953)">
<title>controllers_diagram</title>
<polygon fill="white" stroke="white" points="-4,5 -4,-953 1014,-953 1014,5 -4,5"/>
<!-- _diagram_info -->
<g id="node1" class="node"><title>_diagram_info</title>
<text text-anchor="start" x="296" y="-183.6" font-family="Times,serif" font-size="13.00">Controllers diagram</text>
<text text-anchor="start" x="296" y="-169.6" font-family="Times,serif" font-size="13.00">Date: Aug 22 2011 &#45; 08:17</text>
<text text-anchor="start" x="296" y="-155.6" font-family="Times,serif" font-size="13.00">Migration version: 0</text>
<text text-anchor="start" x="296" y="-141.6" font-family="Times,serif" font-size="13.00">Generated by RailRoady 1.0.2</text>
<text text-anchor="start" x="296" y="-127.6" font-family="Times,serif" font-size="13.00">http://railroady.prestonlee.com</text>
</g>
<!-- Admin::AdminController -->
<g id="node2" class="node"><title>Admin::AdminController</title>
<polyline fill="none" stroke="black" points="12,-504.5 205,-504.5 "/>
<path fill="none" stroke="black" d="M205,-504.5C211,-504.5 217,-510.5 217,-516.5"/>
<polyline fill="none" stroke="black" points="217,-516.5 217,-674.5 "/>
<path fill="none" stroke="black" d="M217,-674.5C217,-680.5 211,-686.5 205,-686.5"/>
<polyline fill="none" stroke="black" points="205,-686.5 12,-686.5 "/>
<path fill="none" stroke="black" d="M12,-686.5C6,-686.5 -5.68434e-14,-680.5 -5.68434e-14,-674.5"/>
<polyline fill="none" stroke="black" points="-5.68434e-14,-674.5 -5.68434e-14,-516.5 "/>
<path fill="none" stroke="black" d="M-5.68434e-14,-516.5C-5.68434e-14,-510.5 6,-504.5 12,-504.5"/>
<text text-anchor="middle" x="108.5" y="-671.3" font-family="Times,serif" font-size="14.00">Admin::AdminController</text>
<polyline fill="none" stroke="black" points="-5.68434e-14,-663.5 217,-663.5 "/>
<text text-anchor="start" x="8" y="-648.3" font-family="Times,serif" font-size="14.00">_callback_after_98</text>
<text text-anchor="start" x="8" y="-633.3" font-family="Times,serif" font-size="14.00">_one_time_conditions_valid_101?</text>
<text text-anchor="start" x="8" y="-618.3" font-family="Times,serif" font-size="14.00">_one_time_conditions_valid_95?</text>
<polyline fill="none" stroke="black" points="-5.68434e-14,-610.5 217,-610.5 "/>
<text text-anchor="start" x="8" y="-595.3" font-family="Times,serif" font-size="14.00">admin_editing_language</text>
<text text-anchor="start" x="8" y="-580.3" font-family="Times,serif" font-size="14.00">check_role</text>
<text text-anchor="start" x="8" y="-565.3" font-family="Times,serif" font-size="14.00">check_roles</text>
<text text-anchor="start" x="8" y="-550.3" font-family="Times,serif" font-size="14.00">set_layout</text>
<polyline fill="none" stroke="black" points="-5.68434e-14,-542.5 217,-542.5 "/>
<text text-anchor="start" x="8" y="-527.3" font-family="Times,serif" font-size="14.00">_layout</text>
<text text-anchor="start" x="8" y="-512.3" font-family="Times,serif" font-size="14.00">_run_process_action_callbacks</text>
</g>
<!-- Admin::ArticlesController -->
<g id="node3" class="node"><title>Admin::ArticlesController</title>
<polyline fill="none" stroke="black" points="348,-624.5 541,-624.5 "/>
<path fill="none" stroke="black" d="M541,-624.5C547,-624.5 553,-630.5 553,-636.5"/>
<polyline fill="none" stroke="black" points="553,-636.5 553,-840.5 "/>
<path fill="none" stroke="black" d="M553,-840.5C553,-846.5 547,-852.5 541,-852.5"/>
<polyline fill="none" stroke="black" points="541,-852.5 348,-852.5 "/>
<path fill="none" stroke="black" d="M348,-852.5C342,-852.5 336,-846.5 336,-840.5"/>
<polyline fill="none" stroke="black" points="336,-840.5 336,-636.5 "/>
<path fill="none" stroke="black" d="M336,-636.5C336,-630.5 342,-624.5 348,-624.5"/>
<text text-anchor="middle" x="444.5" y="-837.3" font-family="Times,serif" font-size="14.00">Admin::ArticlesController</text>
<polyline fill="none" stroke="black" points="336,-829.5 553,-829.5 "/>
<text text-anchor="start" x="344" y="-814.3" font-family="Times,serif" font-size="14.00">_callback_before_102</text>
<text text-anchor="start" x="344" y="-799.3" font-family="Times,serif" font-size="14.00">_callback_before_104</text>
<text text-anchor="start" x="344" y="-784.3" font-family="Times,serif" font-size="14.00">_one_time_conditions_valid_103?</text>
<text text-anchor="start" x="344" y="-769.3" font-family="Times,serif" font-size="14.00">_one_time_conditions_valid_105?</text>
<text text-anchor="start" x="344" y="-754.3" font-family="Times,serif" font-size="14.00">create</text>
<text text-anchor="start" x="344" y="-739.3" font-family="Times,serif" font-size="14.00">edit</text>
<text text-anchor="start" x="344" y="-724.3" font-family="Times,serif" font-size="14.00">index</text>
<text text-anchor="start" x="344" y="-709.3" font-family="Times,serif" font-size="14.00">new</text>
<text text-anchor="start" x="344" y="-694.3" font-family="Times,serif" font-size="14.00">update</text>
<polyline fill="none" stroke="black" points="336,-686.5 553,-686.5 "/>
<polyline fill="none" stroke="black" points="336,-662.5 553,-662.5 "/>
<text text-anchor="start" x="344" y="-647.3" font-family="Times,serif" font-size="14.00">_layout</text>
<text text-anchor="start" x="344" y="-632.3" font-family="Times,serif" font-size="14.00">_run_process_action_callbacks</text>
</g>
<!-- Admin::CategoriesController -->
<g id="node4" class="node"><title>Admin::CategoriesController</title>
<polyline fill="none" stroke="black" points="12,-288.5 205,-288.5 "/>
<path fill="none" stroke="black" d="M205,-288.5C211,-288.5 217,-294.5 217,-300.5"/>
<polyline fill="none" stroke="black" points="217,-300.5 217,-444.5 "/>
<path fill="none" stroke="black" d="M217,-444.5C217,-450.5 211,-456.5 205,-456.5"/>
<polyline fill="none" stroke="black" points="205,-456.5 12,-456.5 "/>
<path fill="none" stroke="black" d="M12,-456.5C6,-456.5 -5.68434e-14,-450.5 -5.68434e-14,-444.5"/>
<polyline fill="none" stroke="black" points="-5.68434e-14,-444.5 -5.68434e-14,-300.5 "/>
<path fill="none" stroke="black" d="M-5.68434e-14,-300.5C-5.68434e-14,-294.5 6,-288.5 12,-288.5"/>
<text text-anchor="middle" x="108.5" y="-441.3" font-family="Times,serif" font-size="14.00">Admin::CategoriesController</text>
<polyline fill="none" stroke="black" points="-5.68434e-14,-433.5 217,-433.5 "/>
<text text-anchor="start" x="8" y="-418.3" font-family="Times,serif" font-size="14.00">_callback_before_106</text>
<text text-anchor="start" x="8" y="-403.3" font-family="Times,serif" font-size="14.00">_callback_before_108</text>
<text text-anchor="start" x="8" y="-388.3" font-family="Times,serif" font-size="14.00">_one_time_conditions_valid_107?</text>
<text text-anchor="start" x="8" y="-373.3" font-family="Times,serif" font-size="14.00">_one_time_conditions_valid_109?</text>
<text text-anchor="start" x="8" y="-358.3" font-family="Times,serif" font-size="14.00">create</text>
<polyline fill="none" stroke="black" points="-5.68434e-14,-350.5 217,-350.5 "/>
<polyline fill="none" stroke="black" points="-5.68434e-14,-326.5 217,-326.5 "/>
<text text-anchor="start" x="8" y="-311.3" font-family="Times,serif" font-size="14.00">_layout</text>
<text text-anchor="start" x="8" y="-296.3" font-family="Times,serif" font-size="14.00">_run_process_action_callbacks</text>
</g>
<!-- Admin::PagesController -->
<g id="node5" class="node"><title>Admin::PagesController</title>
<polyline fill="none" stroke="black" points="540,-264.5 733,-264.5 "/>
<path fill="none" stroke="black" d="M733,-264.5C739,-264.5 745,-270.5 745,-276.5"/>
<polyline fill="none" stroke="black" points="745,-276.5 745,-570.5 "/>
<path fill="none" stroke="black" d="M745,-570.5C745,-576.5 739,-582.5 733,-582.5"/>
<polyline fill="none" stroke="black" points="733,-582.5 540,-582.5 "/>
<path fill="none" stroke="black" d="M540,-582.5C534,-582.5 528,-576.5 528,-570.5"/>
<polyline fill="none" stroke="black" points="528,-570.5 528,-276.5 "/>
<path fill="none" stroke="black" d="M528,-276.5C528,-270.5 534,-264.5 540,-264.5"/>
<text text-anchor="middle" x="636.5" y="-567.3" font-family="Times,serif" font-size="14.00">Admin::PagesController</text>
<polyline fill="none" stroke="black" points="528,-559.5 745,-559.5 "/>
<text text-anchor="start" x="536" y="-544.3" font-family="Times,serif" font-size="14.00">_callback_before_110</text>
<text text-anchor="start" x="536" y="-529.3" font-family="Times,serif" font-size="14.00">_callback_before_112</text>
<text text-anchor="start" x="536" y="-514.3" font-family="Times,serif" font-size="14.00">_one_time_conditions_valid_111?</text>
<text text-anchor="start" x="536" y="-499.3" font-family="Times,serif" font-size="14.00">_one_time_conditions_valid_113?</text>
<text text-anchor="start" x="536" y="-484.3" font-family="Times,serif" font-size="14.00">apply_layout</text>
<text text-anchor="start" x="536" y="-469.3" font-family="Times,serif" font-size="14.00">create</text>
<text text-anchor="start" x="536" y="-454.3" font-family="Times,serif" font-size="14.00">destroy</text>
<text text-anchor="start" x="536" y="-439.3" font-family="Times,serif" font-size="14.00">edit</text>
<text text-anchor="start" x="536" y="-424.3" font-family="Times,serif" font-size="14.00">index</text>
<text text-anchor="start" x="536" y="-409.3" font-family="Times,serif" font-size="14.00">new</text>
<text text-anchor="start" x="536" y="-394.3" font-family="Times,serif" font-size="14.00">set_editing_language</text>
<text text-anchor="start" x="536" y="-379.3" font-family="Times,serif" font-size="14.00">show</text>
<text text-anchor="start" x="536" y="-364.3" font-family="Times,serif" font-size="14.00">sort</text>
<text text-anchor="start" x="536" y="-349.3" font-family="Times,serif" font-size="14.00">toggle</text>
<text text-anchor="start" x="536" y="-334.3" font-family="Times,serif" font-size="14.00">update</text>
<polyline fill="none" stroke="black" points="528,-326.5 745,-326.5 "/>
<polyline fill="none" stroke="black" points="528,-302.5 745,-302.5 "/>
<text text-anchor="start" x="536" y="-287.3" font-family="Times,serif" font-size="14.00">_layout</text>
<text text-anchor="start" x="536" y="-272.3" font-family="Times,serif" font-size="14.00">_run_process_action_callbacks</text>
</g>
<!-- Admin::SettingsController -->
<g id="node6" class="node"><title>Admin::SettingsController</title>
<polyline fill="none" stroke="black" points="540,-24.5 733,-24.5 "/>
<path fill="none" stroke="black" d="M733,-24.5C739,-24.5 745,-30.5 745,-36.5"/>
<polyline fill="none" stroke="black" points="745,-36.5 745,-210.5 "/>
<path fill="none" stroke="black" d="M745,-210.5C745,-216.5 739,-222.5 733,-222.5"/>
<polyline fill="none" stroke="black" points="733,-222.5 540,-222.5 "/>
<path fill="none" stroke="black" d="M540,-222.5C534,-222.5 528,-216.5 528,-210.5"/>
<polyline fill="none" stroke="black" points="528,-210.5 528,-36.5 "/>
<path fill="none" stroke="black" d="M528,-36.5C528,-30.5 534,-24.5 540,-24.5"/>
<text text-anchor="middle" x="636.5" y="-207.3" font-family="Times,serif" font-size="14.00">Admin::SettingsController</text>
<polyline fill="none" stroke="black" points="528,-199.5 745,-199.5 "/>
<text text-anchor="start" x="536" y="-184.3" font-family="Times,serif" font-size="14.00">_callback_before_114</text>
<text text-anchor="start" x="536" y="-169.3" font-family="Times,serif" font-size="14.00">_callback_before_116</text>
<text text-anchor="start" x="536" y="-154.3" font-family="Times,serif" font-size="14.00">_one_time_conditions_valid_115?</text>
<text text-anchor="start" x="536" y="-139.3" font-family="Times,serif" font-size="14.00">_one_time_conditions_valid_117?</text>
<text text-anchor="start" x="536" y="-124.3" font-family="Times,serif" font-size="14.00">edit</text>
<text text-anchor="start" x="536" y="-109.3" font-family="Times,serif" font-size="14.00">update</text>
<polyline fill="none" stroke="black" points="528,-101.5 745,-101.5 "/>
<polyline fill="none" stroke="black" points="528,-77.5 745,-77.5 "/>
<text text-anchor="start" x="536" y="-62.3" font-family="Times,serif" font-size="14.00">_layout</text>
<text text-anchor="start" x="536" y="-47.3" font-family="Times,serif" font-size="14.00">_run_process_action_callbacks</text>
<text text-anchor="start" x="536" y="-32.3" font-family="Times,serif" font-size="14.00">change_theme</text>
</g>
<!-- Admin::SnippetsController -->
<g id="node7" class="node"><title>Admin::SnippetsController</title>
<polyline fill="none" stroke="black" points="84,-720.5 277,-720.5 "/>
<path fill="none" stroke="black" d="M277,-720.5C283,-720.5 289,-726.5 289,-732.5"/>
<polyline fill="none" stroke="black" points="289,-732.5 289,-936.5 "/>
<path fill="none" stroke="black" d="M289,-936.5C289,-942.5 283,-948.5 277,-948.5"/>
<polyline fill="none" stroke="black" points="277,-948.5 84,-948.5 "/>
<path fill="none" stroke="black" d="M84,-948.5C78,-948.5 72,-942.5 72,-936.5"/>
<polyline fill="none" stroke="black" points="72,-936.5 72,-732.5 "/>
<path fill="none" stroke="black" d="M72,-732.5C72,-726.5 78,-720.5 84,-720.5"/>
<text text-anchor="middle" x="180.5" y="-933.3" font-family="Times,serif" font-size="14.00">Admin::SnippetsController</text>
<polyline fill="none" stroke="black" points="72,-925.5 289,-925.5 "/>
<text text-anchor="start" x="80" y="-910.3" font-family="Times,serif" font-size="14.00">_callback_before_118</text>
<text text-anchor="start" x="80" y="-895.3" font-family="Times,serif" font-size="14.00">_callback_before_120</text>
<text text-anchor="start" x="80" y="-880.3" font-family="Times,serif" font-size="14.00">_one_time_conditions_valid_119?</text>
<text text-anchor="start" x="80" y="-865.3" font-family="Times,serif" font-size="14.00">_one_time_conditions_valid_121?</text>
<text text-anchor="start" x="80" y="-850.3" font-family="Times,serif" font-size="14.00">destroy</text>
<text text-anchor="start" x="80" y="-835.3" font-family="Times,serif" font-size="14.00">edit</text>
<text text-anchor="start" x="80" y="-820.3" font-family="Times,serif" font-size="14.00">purge</text>
<text text-anchor="start" x="80" y="-805.3" font-family="Times,serif" font-size="14.00">sort</text>
<text text-anchor="start" x="80" y="-790.3" font-family="Times,serif" font-size="14.00">update</text>
<polyline fill="none" stroke="black" points="72,-782.5 289,-782.5 "/>
<polyline fill="none" stroke="black" points="72,-758.5 289,-758.5 "/>
<text text-anchor="start" x="80" y="-743.3" font-family="Times,serif" font-size="14.00">_layout</text>
<text text-anchor="start" x="80" y="-728.3" font-family="Times,serif" font-size="14.00">_run_process_action_callbacks</text>
</g>
<!-- Admin::UsersController -->
<g id="node8" class="node"><title>Admin::UsersController</title>
<polyline fill="none" stroke="black" points="612,-624.5 805,-624.5 "/>
<path fill="none" stroke="black" d="M805,-624.5C811,-624.5 817,-630.5 817,-636.5"/>
<polyline fill="none" stroke="black" points="817,-636.5 817,-870.5 "/>
<path fill="none" stroke="black" d="M817,-870.5C817,-876.5 811,-882.5 805,-882.5"/>
<polyline fill="none" stroke="black" points="805,-882.5 612,-882.5 "/>
<path fill="none" stroke="black" d="M612,-882.5C606,-882.5 600,-876.5 600,-870.5"/>
<polyline fill="none" stroke="black" points="600,-870.5 600,-636.5 "/>
<path fill="none" stroke="black" d="M600,-636.5C600,-630.5 606,-624.5 612,-624.5"/>
<text text-anchor="middle" x="708.5" y="-867.3" font-family="Times,serif" font-size="14.00">Admin::UsersController</text>
<polyline fill="none" stroke="black" points="600,-859.5 817,-859.5 "/>
<text text-anchor="start" x="608" y="-844.3" font-family="Times,serif" font-size="14.00">_callback_before_122</text>
<text text-anchor="start" x="608" y="-829.3" font-family="Times,serif" font-size="14.00">_callback_before_124</text>
<text text-anchor="start" x="608" y="-814.3" font-family="Times,serif" font-size="14.00">_one_time_conditions_valid_123?</text>
<text text-anchor="start" x="608" y="-799.3" font-family="Times,serif" font-size="14.00">_one_time_conditions_valid_125?</text>
<text text-anchor="start" x="608" y="-784.3" font-family="Times,serif" font-size="14.00">create</text>
<text text-anchor="start" x="608" y="-769.3" font-family="Times,serif" font-size="14.00">destroy</text>
<text text-anchor="start" x="608" y="-754.3" font-family="Times,serif" font-size="14.00">edit</text>
<text text-anchor="start" x="608" y="-739.3" font-family="Times,serif" font-size="14.00">index</text>
<text text-anchor="start" x="608" y="-724.3" font-family="Times,serif" font-size="14.00">new</text>
<text text-anchor="start" x="608" y="-709.3" font-family="Times,serif" font-size="14.00">toggle</text>
<text text-anchor="start" x="608" y="-694.3" font-family="Times,serif" font-size="14.00">update</text>
<polyline fill="none" stroke="black" points="600,-686.5 817,-686.5 "/>
<polyline fill="none" stroke="black" points="600,-662.5 817,-662.5 "/>
<text text-anchor="start" x="608" y="-647.3" font-family="Times,serif" font-size="14.00">_layout</text>
<text text-anchor="start" x="608" y="-632.3" font-family="Times,serif" font-size="14.00">_run_process_action_callbacks</text>
</g>
<!-- ApplicationController -->
<g id="node9" class="node"><title>ApplicationController</title>
<polyline fill="none" stroke="black" points="276,-240.5 461,-240.5 "/>
<path fill="none" stroke="black" d="M461,-240.5C467,-240.5 473,-246.5 473,-252.5"/>
<polyline fill="none" stroke="black" points="473,-252.5 473,-561.5 "/>
<path fill="none" stroke="black" d="M473,-561.5C473,-567.5 467,-573.5 461,-573.5"/>
<polyline fill="none" stroke="black" points="461,-573.5 276,-573.5 "/>
<path fill="none" stroke="black" d="M276,-573.5C270,-573.5 264,-567.5 264,-561.5"/>
<polyline fill="none" stroke="black" points="264,-561.5 264,-252.5 "/>
<path fill="none" stroke="black" d="M264,-252.5C264,-246.5 270,-240.5 276,-240.5"/>
<text text-anchor="middle" x="368.5" y="-558.3" font-family="Times,serif" font-size="14.00">ApplicationController</text>
<polyline fill="none" stroke="black" points="264,-550.5 473,-550.5 "/>
<text text-anchor="start" x="272" y="-535.3" font-family="Times,serif" font-size="14.00">_callback_before_90</text>
<text text-anchor="start" x="272" y="-520.3" font-family="Times,serif" font-size="14.00">_one_time_conditions_valid_87?</text>
<text text-anchor="start" x="272" y="-505.3" font-family="Times,serif" font-size="14.00">_one_time_conditions_valid_89?</text>
<text text-anchor="start" x="272" y="-490.3" font-family="Times,serif" font-size="14.00">_one_time_conditions_valid_91?</text>
<text text-anchor="start" x="272" y="-475.3" font-family="Times,serif" font-size="14.00">_one_time_conditions_valid_93?</text>
<text text-anchor="start" x="272" y="-460.3" font-family="Times,serif" font-size="14.00">freeze</text>
<text text-anchor="start" x="272" y="-445.3" font-family="Times,serif" font-size="14.00">freeze_without_memoizable</text>
<polyline fill="none" stroke="black" points="264,-437.5 473,-437.5 "/>
<polyline fill="none" stroke="black" points="264,-413.5 473,-413.5 "/>
<text text-anchor="start" x="272" y="-398.3" font-family="Times,serif" font-size="14.00">_layout</text>
<text text-anchor="start" x="272" y="-383.3" font-family="Times,serif" font-size="14.00">_run_process_action_callbacks</text>
<text text-anchor="start" x="272" y="-368.3" font-family="Times,serif" font-size="14.00">_unmemoized_cfg</text>
<text text-anchor="start" x="272" y="-353.3" font-family="Times,serif" font-size="14.00">_unmemoized_get_configuration</text>
<text text-anchor="start" x="272" y="-338.3" font-family="Times,serif" font-size="14.00">admin_area?</text>
<text text-anchor="start" x="272" y="-323.3" font-family="Times,serif" font-size="14.00">cfg</text>
<text text-anchor="start" x="272" y="-308.3" font-family="Times,serif" font-size="14.00">get_configuration</text>
<text text-anchor="start" x="272" y="-293.3" font-family="Times,serif" font-size="14.00">get_theme</text>
<text text-anchor="start" x="272" y="-278.3" font-family="Times,serif" font-size="14.00">render_error</text>
<text text-anchor="start" x="272" y="-263.3" font-family="Times,serif" font-size="14.00">set_locale</text>
<text text-anchor="start" x="272" y="-248.3" font-family="Times,serif" font-size="14.00">yard_home_link</text>
</g>
<!-- PagesController -->
<g id="node10" class="node"><title>PagesController</title>
<polyline fill="none" stroke="black" points="804,-144.5 890,-144.5 "/>
<path fill="none" stroke="black" d="M890,-144.5C896,-144.5 902,-150.5 902,-156.5"/>
<polyline fill="none" stroke="black" points="902,-156.5 902,-226.5 "/>
<path fill="none" stroke="black" d="M902,-226.5C902,-232.5 896,-238.5 890,-238.5"/>
<polyline fill="none" stroke="black" points="890,-238.5 804,-238.5 "/>
<path fill="none" stroke="black" d="M804,-238.5C798,-238.5 792,-232.5 792,-226.5"/>
<polyline fill="none" stroke="black" points="792,-226.5 792,-156.5 "/>
<path fill="none" stroke="black" d="M792,-156.5C792,-150.5 798,-144.5 804,-144.5"/>
<text text-anchor="middle" x="847" y="-223.3" font-family="Times,serif" font-size="14.00">PagesController</text>
<polyline fill="none" stroke="black" points="792,-215.5 902,-215.5 "/>
<polyline fill="none" stroke="black" points="792,-191.5 902,-191.5 "/>
<polyline fill="none" stroke="black" points="792,-167.5 902,-167.5 "/>
<text text-anchor="start" x="800" y="-152.3" font-family="Times,serif" font-size="14.00">_layout</text>
</g>
<!-- SiteController -->
<g id="node11" class="node"><title>SiteController</title>
<polyline fill="none" stroke="black" points="36,-48.5 229,-48.5 "/>
<path fill="none" stroke="black" d="M229,-48.5C235,-48.5 241,-54.5 241,-60.5"/>
<polyline fill="none" stroke="black" points="241,-60.5 241,-174.5 "/>
<path fill="none" stroke="black" d="M241,-174.5C241,-180.5 235,-186.5 229,-186.5"/>
<polyline fill="none" stroke="black" points="229,-186.5 36,-186.5 "/>
<path fill="none" stroke="black" d="M36,-186.5C30,-186.5 24,-180.5 24,-174.5"/>
<polyline fill="none" stroke="black" points="24,-174.5 24,-60.5 "/>
<path fill="none" stroke="black" d="M24,-60.5C24,-54.5 30,-48.5 36,-48.5"/>
<text text-anchor="middle" x="132.5" y="-171.3" font-family="Times,serif" font-size="14.00">SiteController</text>
<polyline fill="none" stroke="black" points="24,-163.5 241,-163.5 "/>
<text text-anchor="start" x="32" y="-148.3" font-family="Times,serif" font-size="14.00">_callback_before_126</text>
<text text-anchor="start" x="32" y="-133.3" font-family="Times,serif" font-size="14.00">_one_time_conditions_valid_127?</text>
<text text-anchor="start" x="32" y="-118.3" font-family="Times,serif" font-size="14.00">show</text>
<polyline fill="none" stroke="black" points="24,-110.5 241,-110.5 "/>
<polyline fill="none" stroke="black" points="24,-86.5 241,-86.5 "/>
<text text-anchor="start" x="32" y="-71.3" font-family="Times,serif" font-size="14.00">_layout</text>
<text text-anchor="start" x="32" y="-56.3" font-family="Times,serif" font-size="14.00">_run_process_action_callbacks</text>
</g>
<!-- UsersController -->
<g id="node12" class="node"><title>UsersController</title>
<polyline fill="none" stroke="black" points="804,-0.5 997,-0.5 "/>
<path fill="none" stroke="black" d="M997,-0.5C1003,-0.5 1009,-6.5 1009,-12.5"/>
<polyline fill="none" stroke="black" points="1009,-12.5 1009,-96.5 "/>
<path fill="none" stroke="black" d="M1009,-96.5C1009,-102.5 1003,-108.5 997,-108.5"/>
<polyline fill="none" stroke="black" points="997,-108.5 804,-108.5 "/>
<path fill="none" stroke="black" d="M804,-108.5C798,-108.5 792,-102.5 792,-96.5"/>
<polyline fill="none" stroke="black" points="792,-96.5 792,-12.5 "/>
<path fill="none" stroke="black" d="M792,-12.5C792,-6.5 798,-0.5 804,-0.5"/>
<text text-anchor="middle" x="900.5" y="-93.3" font-family="Times,serif" font-size="14.00">UsersController</text>
<polyline fill="none" stroke="black" points="792,-85.5 1009,-85.5 "/>
<text text-anchor="start" x="800" y="-70.3" font-family="Times,serif" font-size="14.00">_one_time_conditions_valid_129?</text>
<polyline fill="none" stroke="black" points="792,-62.5 1009,-62.5 "/>
<polyline fill="none" stroke="black" points="792,-38.5 1009,-38.5 "/>
<text text-anchor="start" x="800" y="-23.3" font-family="Times,serif" font-size="14.00">_layout</text>
<text text-anchor="start" x="800" y="-8.3" font-family="Times,serif" font-size="14.00">_run_process_action_callbacks</text>
</g>
</g>
</svg>
