<?xml version="1.0" encoding="UTF-8" standalone="no"?>
<!DOCTYPE svg PUBLIC "-//W3C//DTD SVG 1.1//EN"
 "http://www.w3.org/Graphics/SVG/1.1/DTD/svg11.dtd">
<!-- Generated by graphviz version 2.28.0 (20110601.1231)
 -->
<!-- Title: models_diagram Pages: 1 -->
<svg width="1543pt" height="374pt"
 viewBox="0.00 0.00 1543.00 374.00" xmlns="http://www.w3.org/2000/svg" xmlns:xlink="http://www.w3.org/1999/xlink">
<g id="graph1" class="graph" transform="scale(1 1) rotate(0) translate(4 370)">
<title>models_diagram</title>
<polygon fill="white" stroke="white" points="-4,5 -4,-370 1540,-370 1540,5 -4,5"/>
<!-- _diagram_info -->
<g id="node1" class="node"><title>_diagram_info</title>
<text text-anchor="start" x="7.5" y="-351.6" font-family="Times,serif" font-size="13.00">Models diagram</text>
<text text-anchor="start" x="7.5" y="-337.6" font-family="Times,serif" font-size="13.00">Date: Jan 03 2012 &#45; 12:29</text>
<text text-anchor="start" x="7.5" y="-323.6" font-family="Times,serif" font-size="13.00">Migration version: 20111202095320</text>
<text text-anchor="start" x="7.5" y="-309.6" font-family="Times,serif" font-size="13.00">Generated by RailRoady 1.0.4</text>
<text text-anchor="start" x="7.5" y="-295.6" font-family="Times,serif" font-size="13.00">http://railroady.prestonlee.com</text>
</g>
<!-- Ability -->
<g id="node2" class="node"><title>Ability</title>
<polygon fill="none" stroke="black" points="281.25,-345 224.75,-345 224.75,-309 281.25,-309 281.25,-345"/>
<text text-anchor="middle" x="253" y="-323.3" font-family="Times,serif" font-size="14.00">Ability</text>
</g>
<!-- Archive -->
<g id="node3" class="node"><title>Archive</title>
<ellipse fill="none" stroke="black" cx="355" cy="-162" rx="39.9464" ry="18"/>
<text text-anchor="middle" x="355" y="-158.3" font-family="Times,serif" font-size="14.00">Archive</text>
</g>
<!-- Article -->
<g id="node4" class="node"><title>Article</title>
<ellipse fill="none" stroke="black" cx="910" cy="-162" rx="36.096" ry="18"/>
<text text-anchor="middle" x="910" y="-158.3" font-family="Times,serif" font-size="14.00">Article</text>
</g>
<!-- Categorization -->
<g id="node8" class="node"><title>Categorization</title>
<ellipse fill="none" stroke="black" cx="873" cy="-18" rx="65.4659" ry="18"/>
<text text-anchor="middle" x="873" y="-14.3" font-family="Times,serif" font-size="14.00">Categorization</text>
</g>
<!-- Article&#45;&gt;Categorization -->
<g id="edge4" class="edge"><title>Article&#45;&gt;Categorization</title>
<path fill="none" stroke="black" d="M882.839,-141.982C872.376,-133.013 861.599,-121.341 856,-108 847.576,-87.9287 853.226,-63.5524 860.196,-45.3894"/>
<ellipse fill="none" stroke="black" cx="886.161" cy="-144.685" rx="4.00002" ry="4.00002"/>
<polygon fill="black" stroke="black" points="860.263,-45.2296 868.274,-37.742 862.193,-40.6172 864.123,-36.0048 864.123,-36.0048 864.123,-36.0048 862.193,-40.6172 859.972,-34.2676 860.263,-45.2296 860.263,-45.2296"/>
</g>
<!-- Category -->
<g id="node9" class="node"><title>Category</title>
<ellipse fill="none" stroke="black" cx="910" cy="-90" rx="45.244" ry="18"/>
<text text-anchor="middle" x="910" y="-86.3" font-family="Times,serif" font-size="14.00">Category</text>
</g>
<!-- Article&#45;&gt;Category -->
<g id="edge6" class="edge"><title>Article&#45;&gt;Category</title>
<path fill="none" stroke="black" d="M910,-133.665C910,-128.687 910,-123.491 910,-118.507"/>
<polygon fill="black" stroke="black" points="910,-133.697 905.5,-143.697 910,-138.697 910,-143.697 910,-143.697 910,-143.697 910,-138.697 914.5,-143.697 910,-133.697 910,-133.697"/>
<polygon fill="black" stroke="black" points="910,-118.104 914.5,-108.104 910,-113.104 910,-108.104 910,-108.104 910,-108.104 910,-113.104 905.5,-108.104 910,-118.104 910,-118.104"/>
</g>
<!-- Comment -->
<g id="node13" class="node"><title>Comment</title>
<ellipse fill="none" stroke="black" cx="1022" cy="-90" rx="48.1437" ry="18"/>
<text text-anchor="middle" x="1022" y="-86.3" font-family="Times,serif" font-size="14.00">Comment</text>
</g>
<!-- Article&#45;&gt;Comment -->
<g id="edge8" class="edge"><title>Article&#45;&gt;Comment</title>
<path fill="none" stroke="black" d="M938.63,-143.106C954.181,-133.387 973.466,-121.334 989.569,-111.269"/>
<ellipse fill="none" stroke="black" cx="934.987" cy="-145.383" rx="4.00002" ry="4.00002"/>
<polygon fill="black" stroke="black" points="989.665,-111.209 1000.53,-109.725 993.905,-108.559 998.145,-105.909 998.145,-105.909 998.145,-105.909 993.905,-108.559 995.76,-102.093 989.665,-111.209 989.665,-111.209"/>
</g>
<!-- ArticleLayout -->
<g id="node5" class="node"><title>ArticleLayout</title>
<ellipse fill="none" stroke="black" cx="229" cy="-234" rx="63.0666" ry="18"/>
<text text-anchor="middle" x="229" y="-230.3" font-family="Times,serif" font-size="14.00">ArticleLayout</text>
</g>
<!-- Association -->
<g id="node6" class="node"><title>Association</title>
<ellipse fill="none" stroke="black" cx="243" cy="-162" rx="53.4184" ry="18"/>
<text text-anchor="middle" x="243" y="-158.3" font-family="Times,serif" font-size="14.00">Association</text>
</g>
<!-- ArticleLayout&#45;&gt;Association -->
<g id="edge10" class="edge"><title>ArticleLayout&#45;&gt;Association</title>
<path fill="none" stroke="black" d="M234.072,-207.64C235.216,-201.92 236.434,-195.828 237.592,-190.042"/>
<ellipse fill="none" stroke="black" cx="233.245" cy="-211.774" rx="4.00001" ry="4.00001"/>
<polygon fill="black" stroke="black" points="237.618,-189.91 243.992,-180.987 238.599,-185.007 239.579,-180.104 239.579,-180.104 239.579,-180.104 238.599,-185.007 235.167,-179.222 237.618,-189.91 237.618,-189.91"/>
</g>
<!-- Snippet -->
<g id="node22" class="node"><title>Snippet</title>
<ellipse fill="none" stroke="black" cx="339" cy="-327" rx="39.4691" ry="18"/>
<text text-anchor="middle" x="339" y="-323.3" font-family="Times,serif" font-size="14.00">Snippet</text>
</g>
<!-- ArticleLayout&#45;&gt;Snippet -->
<g id="edge12" class="edge"><title>ArticleLayout&#45;&gt;Snippet</title>
<path fill="none" stroke="black" d="M261.205,-256.795C279.333,-270.831 301.372,-289.042 317.447,-303.26"/>
<polygon fill="black" stroke="black" points="261.133,-256.74 255.918,-247.093 257.159,-253.705 253.186,-250.669 253.186,-250.669 253.186,-250.669 257.159,-253.705 250.454,-254.245 261.133,-256.74 261.133,-256.74"/>
<polygon fill="black" stroke="black" points="317.671,-303.462 322.097,-313.495 321.389,-306.805 325.106,-310.149 325.106,-310.149 325.106,-310.149 321.389,-306.805 328.116,-306.803 317.671,-303.462 317.671,-303.462"/>
</g>
<!-- Audio -->
<g id="node7" class="node"><title>Audio</title>
<ellipse fill="none" stroke="black" cx="448" cy="-162" rx="34.1708" ry="18"/>
<text text-anchor="middle" x="448" y="-158.3" font-family="Times,serif" font-size="14.00">Audio</text>
</g>
<!-- Category&#45;&gt;Categorization -->
<g id="edge16" class="edge"><title>Category&#45;&gt;Categorization</title>
<path fill="none" stroke="black" d="M897.223,-64.8269C893.886,-58.5146 890.274,-51.6811 886.883,-45.2658"/>
<ellipse fill="none" stroke="black" cx="899.174" cy="-68.5186" rx="4.00002" ry="4.00002"/>
<polygon fill="black" stroke="black" points="886.804,-45.1163 886.11,-34.1724 884.468,-40.6958 882.131,-36.2753 882.131,-36.2753 882.131,-36.2753 884.468,-40.6958 878.153,-38.3782 886.804,-45.1163 886.804,-45.1163"/>
</g>
<!-- Ckeditor::Asset -->
<g id="node10" class="node"><title>Ckeditor::Asset</title>
<ellipse fill="none" stroke="black" cx="1132" cy="-327" rx="68.3417" ry="18"/>
<text text-anchor="middle" x="1132" y="-323.3" font-family="Times,serif" font-size="14.00">Ckeditor::Asset</text>
</g>
<!-- Ckeditor::AttachmentFile -->
<g id="node11" class="node"><title>Ckeditor::AttachmentFile</title>
<ellipse fill="none" stroke="black" cx="1032" cy="-234" rx="105.411" ry="18"/>
<text text-anchor="middle" x="1032" y="-230.3" font-family="Times,serif" font-size="14.00">Ckeditor::AttachmentFile</text>
</g>
<!-- Ckeditor::Asset&#45;&gt;Ckeditor::AttachmentFile -->
<g id="edge18" class="edge"><title>Ckeditor::Asset&#45;&gt;Ckeditor::AttachmentFile</title>
<path fill="none" stroke="black" d="M1113.66,-309.309C1095.73,-292.992 1068.57,-268.279 1050.56,-251.893"/>
</g>
<!-- Ckeditor::Picture -->
<g id="node12" class="node"><title>Ckeditor::Picture</title>
<ellipse fill="none" stroke="black" cx="1231" cy="-234" rx="75.0904" ry="18"/>
<text text-anchor="middle" x="1231" y="-230.3" font-family="Times,serif" font-size="14.00">Ckeditor::Picture</text>
</g>
<!-- Ckeditor::Asset&#45;&gt;Ckeditor::Picture -->
<g id="edge20" class="edge"><title>Ckeditor::Asset&#45;&gt;Ckeditor::Picture</title>
<path fill="none" stroke="black" d="M1150.16,-309.309C1168.02,-292.89 1195.13,-267.968 1212.96,-251.585"/>
</g>
<!-- Document -->
<g id="node14" class="node"><title>Document</title>
<ellipse fill="none" stroke="black" cx="550" cy="-162" rx="50.0684" ry="18"/>
<text text-anchor="middle" x="550" y="-158.3" font-family="Times,serif" font-size="14.00">Document</text>
</g>
<!-- Grade -->
<g id="node15" class="node"><title>Grade</title>
<ellipse fill="none" stroke="black" cx="822" cy="-162" rx="33.1991" ry="18"/>
<text text-anchor="middle" x="822" y="-158.3" font-family="Times,serif" font-size="14.00">Grade</text>
</g>
<!-- Image -->
<g id="node16" class="node"><title>Image</title>
<ellipse fill="none" stroke="black" cx="652" cy="-162" rx="33.1991" ry="18"/>
<text text-anchor="middle" x="652" y="-158.3" font-family="Times,serif" font-size="14.00">Image</text>
</g>
<!-- Language -->
<g id="node17" class="node"><title>Language</title>
<polygon fill="none" stroke="black" points="1293,-345 1219,-345 1219,-309 1293,-309 1293,-345"/>
<text text-anchor="middle" x="1256" y="-323.3" font-family="Times,serif" font-size="14.00">Language</text>
</g>
<!-- Layout -->
<g id="node18" class="node"><title>Layout</title>
<polygon fill="none" stroke="black" points="1369,-345 1311,-345 1311,-309 1369,-309 1369,-345"/>
<text text-anchor="middle" x="1340" y="-323.3" font-family="Times,serif" font-size="14.00">Layout</text>
</g>
<!-- Page -->
<g id="node19" class="node"><title>Page</title>
<ellipse fill="none" stroke="black" cx="339" cy="-234" rx="28.3955" ry="18"/>
<text text-anchor="middle" x="339" y="-230.3" font-family="Times,serif" font-size="14.00">Page</text>
</g>
<!-- Page&#45;&gt;Association -->
<g id="edge26" class="edge"><title>Page&#45;&gt;Association</title>
<path fill="none" stroke="black" d="M314.175,-214.899C301.505,-205.66 285.999,-194.353 272.698,-184.655"/>
<ellipse fill="none" stroke="black" cx="317.711" cy="-217.477" rx="4.00002" ry="4.00002"/>
<polygon fill="black" stroke="black" points="272.408,-184.443 266.979,-174.916 268.368,-181.497 264.328,-178.552 264.328,-178.552 264.328,-178.552 268.368,-181.497 261.677,-182.188 272.408,-184.443 272.408,-184.443"/>
</g>
<!-- Page&#45;&gt;Snippet -->
<g id="edge28" class="edge"><title>Page&#45;&gt;Snippet</title>
<path fill="none" stroke="black" d="M345.209,-261.697C345.914,-273.271 345.93,-286.814 345.258,-298.479"/>
<polygon fill="black" stroke="black" points="345.209,-261.697 348.853,-251.354 344.789,-256.715 344.369,-251.732 344.369,-251.732 344.369,-251.732 344.789,-256.715 339.885,-252.11 345.209,-261.697 345.209,-261.697"/>
<polygon fill="black" stroke="black" points="345.222,-298.917 339.926,-308.519 344.817,-303.9 344.411,-308.884 344.411,-308.884 344.411,-308.884 344.817,-303.9 348.897,-309.249 345.222,-298.917 345.222,-298.917"/>
</g>
<!-- Role -->
<g id="node20" class="node"><title>Role</title>
<ellipse fill="none" stroke="black" cx="851" cy="-327" rx="28.3955" ry="18"/>
<text text-anchor="middle" x="851" y="-323.3" font-family="Times,serif" font-size="14.00">Role</text>
</g>
<!-- Role&#45;&gt;Grade -->
<g id="edge30" class="edge"><title>Role&#45;&gt;Grade</title>
<path fill="none" stroke="black" d="M846.542,-300.945C841.23,-271.085 832.383,-221.36 826.888,-190.473"/>
<ellipse fill="none" stroke="black" cx="847.251" cy="-304.926" rx="4.00001" ry="4.00001"/>
<polygon fill="black" stroke="black" points="826.847,-190.242 829.526,-179.609 825.971,-185.319 825.095,-180.397 825.095,-180.397 825.095,-180.397 825.971,-185.319 820.665,-181.185 826.847,-190.242 826.847,-190.242"/>
</g>
<!-- User -->
<g id="node25" class="node"><title>User</title>
<ellipse fill="none" stroke="black" cx="879" cy="-234" rx="28.3955" ry="18"/>
<text text-anchor="middle" x="879" y="-230.3" font-family="Times,serif" font-size="14.00">User</text>
</g>
<!-- Role&#45;&gt;User -->
<g id="edge32" class="edge"><title>Role&#45;&gt;User</title>
<path fill="none" stroke="black" d="M859.332,-298.922C862.978,-287.073 867.24,-273.218 870.864,-261.443"/>
<polygon fill="black" stroke="black" points="859.208,-299.326 851.966,-307.56 857.737,-304.105 856.267,-308.884 856.267,-308.884 856.267,-308.884 857.737,-304.105 860.568,-310.207 859.208,-299.326 859.208,-299.326"/>
<polygon fill="black" stroke="black" points="870.911,-261.29 878.153,-253.056 872.381,-256.511 873.852,-251.732 873.852,-251.732 873.852,-251.732 872.381,-256.511 869.551,-250.409 870.911,-261.29 870.911,-261.29"/>
</g>
<!-- Setting -->
<g id="node21" class="node"><title>Setting</title>
<ellipse fill="none" stroke="black" cx="1424" cy="-327" rx="37.0701" ry="18"/>
<text text-anchor="middle" x="1424" y="-323.3" font-family="Times,serif" font-size="14.00">Setting</text>
</g>
<!-- Snippet&#45;&gt;ArticleLayout -->
<g id="edge38" class="edge"><title>Snippet&#45;&gt;ArticleLayout</title>
<path fill="none" stroke="black" d="M310.621,-307.149C291.571,-292.581 267.063,-272.386 249.792,-257.066"/>
<ellipse fill="none" stroke="black" cx="313.826" cy="-309.57" rx="4.00002" ry="4.00002"/>
<ellipse fill="black" stroke="black" cx="246.755" cy="-254.336" rx="4.00002" ry="4.00002"/>
</g>
<!-- Snippet&#45;&gt;Association -->
<g id="edge34" class="edge"><title>Snippet&#45;&gt;Association</title>
<path fill="none" stroke="black" d="M357.709,-303.33C374.633,-279.894 394.318,-243.018 376,-216 365.992,-201.239 325.416,-186.374 291.685,-176.159"/>
<ellipse fill="none" stroke="black" cx="355.216" cy="-306.654" rx="4.00002" ry="4.00002"/>
<ellipse fill="black" stroke="black" cx="287.558" cy="-174.933" rx="4.00001" ry="4.00001"/>
</g>
<!-- Snippet&#45;&gt;Page -->
<g id="edge36" class="edge"><title>Snippet&#45;&gt;Page</title>
<path fill="none" stroke="black" d="M332.878,-300.674C332.033,-287.976 332.041,-272.651 332.9,-259.999"/>
<ellipse fill="none" stroke="black" cx="333.244" cy="-304.898" rx="4" ry="4"/>
<ellipse fill="black" stroke="black" cx="333.279" cy="-255.717" rx="4" ry="4"/>
</g>
<!-- Upload -->
<g id="node24" class="node"><title>Upload</title>
<ellipse fill="none" stroke="black" cx="462" cy="-234" rx="38.0212" ry="18"/>
<text text-anchor="middle" x="462" y="-230.3" font-family="Times,serif" font-size="14.00">Upload</text>
</g>
<!-- Snippet&#45;&gt;Upload -->
<g id="edge42" class="edge"><title>Snippet&#45;&gt;Upload</title>
<path fill="none" stroke="black" d="M365.283,-306.555C385.565,-291.549 413.556,-270.841 434.208,-255.562"/>
<ellipse fill="none" stroke="black" cx="361.978" cy="-309" rx="4.00002" ry="4.00002"/>
<polygon fill="black" stroke="black" points="434.248,-255.532 444.963,-253.202 438.267,-252.558 442.287,-249.584 442.287,-249.584 442.287,-249.584 438.267,-252.558 439.611,-245.967 434.248,-255.532 434.248,-255.532"/>
</g>
<!-- SnippetComponent -->
<g id="node47" class="node"><title>SnippetComponent</title>
<ellipse fill="none" stroke="black" cx="602" cy="-234" rx="83.2649" ry="18"/>
<text text-anchor="middle" x="602" y="-230.3" font-family="Times,serif" font-size="14.00">SnippetComponent</text>
</g>
<!-- Snippet&#45;&gt;SnippetComponent -->
<g id="edge40" class="edge"><title>Snippet&#45;&gt;SnippetComponent</title>
<path fill="none" stroke="black" d="M377.198,-312.783C422.811,-297.001 499.312,-270.531 550.216,-252.918"/>
<ellipse fill="none" stroke="black" cx="373.206" cy="-314.164" rx="4.00001" ry="4.00001"/>
<polygon fill="black" stroke="black" points="550.274,-252.898 561.196,-253.88 554.999,-251.263 559.725,-249.628 559.725,-249.628 559.725,-249.628 554.999,-251.263 558.253,-245.375 550.274,-252.898 550.274,-252.898"/>
</g>
<!-- Theme -->
<g id="node23" class="node"><title>Theme</title>
<polygon fill="none" stroke="black" points="1535,-345 1479,-345 1479,-309 1535,-309 1535,-345"/>
<text text-anchor="middle" x="1507" y="-323.3" font-family="Times,serif" font-size="14.00">Theme</text>
</g>
<!-- Upload&#45;&gt;Archive -->
<g id="edge2" class="edge"><title>Upload&#45;&gt;Archive</title>
<path fill="none" stroke="black" d="M440.604,-219.003C422.064,-206.874 395.362,-189.405 376.726,-177.213"/>
</g>
<!-- Upload&#45;&gt;Audio -->
<g id="edge14" class="edge"><title>Upload&#45;&gt;Audio</title>
<path fill="none" stroke="black" d="M458.611,-216.055C456.442,-205.211 453.637,-191.183 451.455,-180.275"/>
</g>
<!-- Upload&#45;&gt;Document -->
<g id="edge22" class="edge"><title>Upload&#45;&gt;Document</title>
<path fill="none" stroke="black" d="M480.663,-218.155C495.193,-206.597 515.315,-190.59 530.141,-178.797"/>
</g>
<!-- Upload&#45;&gt;Image -->
<g id="edge24" class="edge"><title>Upload&#45;&gt;Image</title>
<path fill="none" stroke="black" d="M491.331,-222.383C497.184,-220.267 503.287,-218.062 509,-216 553.432,-199.967 564.808,-196.685 609,-180 614.407,-177.958 620.174,-175.72 625.671,-173.558"/>
</g>
<!-- Video -->
<g id="node26" class="node"><title>Video</title>
<ellipse fill="none" stroke="black" cx="737" cy="-162" rx="33.2209" ry="18"/>
<text text-anchor="middle" x="737" y="-158.3" font-family="Times,serif" font-size="14.00">Video</text>
</g>
<!-- Upload&#45;&gt;Video -->
<g id="edge48" class="edge"><title>Upload&#45;&gt;Video</title>
<path fill="none" stroke="black" d="M490.605,-221.857C496.626,-219.737 502.978,-217.664 509,-216 589.738,-193.687 613.599,-203.498 694,-180 699.856,-178.289 706.025,-176.095 711.804,-173.856"/>
</g>
<!-- User&#45;&gt;Article -->
<g id="edge46" class="edge"><title>User&#45;&gt;Article</title>
<path fill="none" stroke="black" d="M889.601,-209.062C892.448,-202.632 895.542,-195.647 898.439,-189.106"/>
<ellipse fill="none" stroke="black" cx="887.966" cy="-212.754" rx="4.00002" ry="4.00002"/>
<polygon fill="black" stroke="black" points="898.442,-189.1 906.605,-181.778 900.466,-184.528 902.491,-179.956 902.491,-179.956 902.491,-179.956 900.466,-184.528 898.376,-178.134 898.442,-189.1 898.442,-189.1"/>
</g>
<!-- User&#45;&gt;Grade -->
<g id="edge44" class="edge"><title>User&#45;&gt;Grade</title>
<path fill="none" stroke="black" d="M861.287,-211.247C854.981,-203.503 847.848,-194.743 841.408,-186.834"/>
<ellipse fill="none" stroke="black" cx="863.824" cy="-214.363" rx="4.00002" ry="4.00002"/>
<polygon fill="black" stroke="black" points="841.324,-186.732 838.499,-176.136 838.167,-182.854 835.01,-178.977 835.01,-178.977 835.01,-178.977 838.167,-182.854 831.52,-181.819 841.324,-186.732 841.324,-186.732"/>
</g>
</g>
</svg>
