<?xml version="1.0" encoding="UTF-8" standalone="no"?>
<!DOCTYPE svg PUBLIC "-//W3C//DTD SVG 1.1//EN"
 "http://www.w3.org/Graphics/SVG/1.1/DTD/svg11.dtd">
<!-- Generated by graphviz version 2.28.0 (20110722.1315)
 -->
<!-- Title: models_diagram Pages: 1 -->
<svg width="1208pt" height="374pt"
 viewBox="0.00 0.00 1208.00 374.00" xmlns="http://www.w3.org/2000/svg" xmlns:xlink="http://www.w3.org/1999/xlink">
<g id="graph1" class="graph" transform="scale(1 1) rotate(0) translate(4 370)">
<title>models_diagram</title>
<polygon fill="white" stroke="white" points="-4,5 -4,-370 1205,-370 1205,5 -4,5"/>
<!-- _diagram_info -->
<g id="node1" class="node"><title>_diagram_info</title>
<text text-anchor="start" x="8" y="-351.6" font-family="Times,serif" font-size="13.00">Models diagram</text>
<text text-anchor="start" x="8" y="-337.6" font-family="Times,serif" font-size="13.00">Date: Aug 22 2011 &#45; 08:17</text>
<text text-anchor="start" x="8" y="-323.6" font-family="Times,serif" font-size="13.00">Migration version: 0</text>
<text text-anchor="start" x="8" y="-309.6" font-family="Times,serif" font-size="13.00">Generated by RailRoady 1.0.2</text>
<text text-anchor="start" x="8" y="-295.6" font-family="Times,serif" font-size="13.00">http://railroady.prestonlee.com</text>
</g>
<!-- Ability -->
<g id="node2" class="node"><title>Ability</title>
<polygon fill="none" stroke="black" points="251.25,-345 194.75,-345 194.75,-309 251.25,-309 251.25,-345"/>
<text text-anchor="middle" x="223" y="-323.3" font-family="Times,serif" font-size="14.00">Ability</text>
</g>
<!-- Article -->
<g id="node3" class="node"><title>Article</title>
<ellipse fill="none" stroke="black" cx="357" cy="-162" rx="36.096" ry="18"/>
<text text-anchor="middle" x="357" y="-158.3" font-family="Times,serif" font-size="14.00">Article</text>
</g>
<!-- Categorization -->
<g id="node5" class="node"><title>Categorization</title>
<ellipse fill="none" stroke="black" cx="357" cy="-18" rx="65.4659" ry="18"/>
<text text-anchor="middle" x="357" y="-14.3" font-family="Times,serif" font-size="14.00">Categorization</text>
</g>
<!-- Article&#45;&gt;Categorization -->
<g id="edge2" class="edge"><title>Article&#45;&gt;Categorization</title>
<path fill="none" stroke="black" d="M347.377,-136.454C344.387,-127.627 341.487,-117.502 340,-108 337.527,-92.1923 337.527,-87.8077 340,-72 341.359,-63.3122 343.9,-54.1039 346.611,-45.843"/>
<ellipse fill="none" stroke="black" cx="348.77" cy="-140.372" rx="4.00001" ry="4.00001"/>
<polygon fill="black" stroke="black" points="346.635,-45.775 354.182,-37.8195 348.284,-41.0549 349.934,-36.3349 349.934,-36.3349 349.934,-36.3349 348.284,-41.0549 345.686,-34.8503 346.635,-45.775 346.635,-45.775"/>
</g>
<!-- Category -->
<g id="node6" class="node"><title>Category</title>
<ellipse fill="none" stroke="black" cx="394" cy="-90" rx="45.244" ry="18"/>
<text text-anchor="middle" x="394" y="-86.3" font-family="Times,serif" font-size="14.00">Category</text>
</g>
<!-- Article&#45;&gt;Category -->
<g id="edge4" class="edge"><title>Article&#45;&gt;Category</title>
<path fill="none" stroke="black" d="M370.561,-135.345C373.727,-129.354 377.102,-122.97 380.275,-116.966"/>
<polygon fill="black" stroke="black" points="370.442,-135.57 361.79,-142.308 368.105,-139.99 365.768,-144.411 365.768,-144.411 365.768,-144.411 368.105,-139.99 369.747,-146.514 370.442,-135.57 370.442,-135.57"/>
<polygon fill="black" stroke="black" points="380.364,-116.797 389.016,-110.059 382.701,-112.377 385.037,-107.956 385.037,-107.956 385.037,-107.956 382.701,-112.377 381.059,-105.853 380.364,-116.797 380.364,-116.797"/>
</g>
<!-- Association -->
<g id="node4" class="node"><title>Association</title>
<ellipse fill="none" stroke="black" cx="465" cy="-162" rx="53.4184" ry="18"/>
<text text-anchor="middle" x="465" y="-158.3" font-family="Times,serif" font-size="14.00">Association</text>
</g>
<!-- Category&#45;&gt;Categorization -->
<g id="edge6" class="edge"><title>Category&#45;&gt;Categorization</title>
<path fill="none" stroke="black" d="M381.223,-64.8269C377.886,-58.5146 374.274,-51.6811 370.883,-45.2658"/>
<ellipse fill="none" stroke="black" cx="383.174" cy="-68.5186" rx="4.00002" ry="4.00002"/>
<polygon fill="black" stroke="black" points="370.804,-45.1163 370.11,-34.1724 368.468,-40.6958 366.131,-36.2753 366.131,-36.2753 366.131,-36.2753 368.468,-40.6958 362.153,-38.3782 370.804,-45.1163 370.804,-45.1163"/>
</g>
<!-- Category&#45;&gt;Category -->
<g id="edge8" class="edge"><title>Category&#45;&gt;Category</title>
<path fill="none" stroke="black" d="M435.586,-103.456C447.659,-102.974 457,-98.4886 457,-90 457,-81.5114 447.659,-77.0259 435.586,-76.5436"/>
<polygon fill="black" stroke="black" points="435.432,-103.449 425.652,-98.4899 430.437,-103.217 425.443,-102.985 425.443,-102.985 425.443,-102.985 430.437,-103.217 425.234,-107.48 435.432,-103.449 435.432,-103.449"/>
<polygon fill="black" stroke="black" points="435.432,-76.5506 425.234,-72.5198 430.437,-76.7828 425.443,-77.015 425.443,-77.015 425.443,-77.015 430.437,-76.7828 425.652,-81.5101 435.432,-76.5506 435.432,-76.5506"/>
</g>
<!-- Ckeditor::Asset -->
<g id="node7" class="node"><title>Ckeditor::Asset</title>
<ellipse fill="none" stroke="black" cx="797" cy="-327" rx="68.3417" ry="18"/>
<text text-anchor="middle" x="797" y="-323.3" font-family="Times,serif" font-size="14.00">Ckeditor::Asset</text>
</g>
<!-- Ckeditor::AttachmentFile -->
<g id="node8" class="node"><title>Ckeditor::AttachmentFile</title>
<ellipse fill="none" stroke="black" cx="697" cy="-234" rx="105.411" ry="18"/>
<text text-anchor="middle" x="697" y="-230.3" font-family="Times,serif" font-size="14.00">Ckeditor::AttachmentFile</text>
</g>
<!-- Ckeditor::Asset&#45;&gt;Ckeditor::AttachmentFile -->
<g id="edge10" class="edge"><title>Ckeditor::Asset&#45;&gt;Ckeditor::AttachmentFile</title>
<path fill="none" stroke="black" d="M778.658,-309.309C760.728,-292.992 733.57,-268.279 715.564,-251.893"/>
</g>
<!-- Ckeditor::Picture -->
<g id="node9" class="node"><title>Ckeditor::Picture</title>
<ellipse fill="none" stroke="black" cx="896" cy="-234" rx="75.0904" ry="18"/>
<text text-anchor="middle" x="896" y="-230.3" font-family="Times,serif" font-size="14.00">Ckeditor::Picture</text>
</g>
<!-- Ckeditor::Asset&#45;&gt;Ckeditor::Picture -->
<g id="edge12" class="edge"><title>Ckeditor::Asset&#45;&gt;Ckeditor::Picture</title>
<path fill="none" stroke="black" d="M815.158,-309.309C833.021,-292.89 860.134,-267.968 877.957,-251.585"/>
</g>
<!-- Grade -->
<g id="node10" class="node"><title>Grade</title>
<ellipse fill="none" stroke="black" cx="269" cy="-162" rx="33.1991" ry="18"/>
<text text-anchor="middle" x="269" y="-158.3" font-family="Times,serif" font-size="14.00">Grade</text>
</g>
<!-- Language -->
<g id="node11" class="node"><title>Language</title>
<polygon fill="none" stroke="black" points="958,-345 884,-345 884,-309 958,-309 958,-345"/>
<text text-anchor="middle" x="921" y="-323.3" font-family="Times,serif" font-size="14.00">Language</text>
</g>
<!-- Layout -->
<g id="node12" class="node"><title>Layout</title>
<polygon fill="none" stroke="black" points="1034,-345 976,-345 976,-309 1034,-309 1034,-345"/>
<text text-anchor="middle" x="1005" y="-323.3" font-family="Times,serif" font-size="14.00">Layout</text>
</g>
<!-- Page -->
<g id="node13" class="node"><title>Page</title>
<ellipse fill="none" stroke="black" cx="533" cy="-327" rx="28.3955" ry="18"/>
<text text-anchor="middle" x="533" y="-323.3" font-family="Times,serif" font-size="14.00">Page</text>
</g>
<!-- Page&#45;&gt;Association -->
<g id="edge14" class="edge"><title>Page&#45;&gt;Association</title>
<path fill="none" stroke="black" d="M515.479,-304.317C504.89,-290.189 491.947,-270.923 484,-252 475.703,-232.244 470.865,-208.442 468.149,-190.425"/>
<ellipse fill="none" stroke="black" cx="518.023" cy="-307.64" rx="4.00002" ry="4.00002"/>
<polygon fill="black" stroke="black" points="468.119,-190.208 471.21,-179.687 467.436,-185.255 466.753,-180.302 466.753,-180.302 466.753,-180.302 467.436,-185.255 462.295,-180.917 468.119,-190.208 468.119,-190.208"/>
</g>
<!-- Snippet -->
<g id="node16" class="node"><title>Snippet</title>
<ellipse fill="none" stroke="black" cx="533" cy="-234" rx="39.4691" ry="18"/>
<text text-anchor="middle" x="533" y="-230.3" font-family="Times,serif" font-size="14.00">Snippet</text>
</g>
<!-- Page&#45;&gt;Snippet -->
<g id="edge16" class="edge"><title>Page&#45;&gt;Snippet</title>
<path fill="none" stroke="black" d="M526.767,-298.912C526.075,-287.232 526.078,-273.604 526.776,-261.941"/>
<polygon fill="black" stroke="black" points="526.803,-299.344 523.152,-309.684 527.22,-304.327 527.636,-309.309 527.636,-309.309 527.636,-309.309 527.22,-304.327 532.12,-308.935 526.803,-299.344 526.803,-299.344"/>
<polygon fill="black" stroke="black" points="526.783,-261.859 532.098,-252.267 527.198,-256.876 527.613,-251.893 527.613,-251.893 527.613,-251.893 527.198,-256.876 523.129,-251.519 526.783,-261.859 526.783,-261.859"/>
</g>
<!-- Role -->
<g id="node14" class="node"><title>Role</title>
<ellipse fill="none" stroke="black" cx="298" cy="-327" rx="28.3955" ry="18"/>
<text text-anchor="middle" x="298" y="-323.3" font-family="Times,serif" font-size="14.00">Role</text>
</g>
<!-- Role&#45;&gt;Grade -->
<g id="edge18" class="edge"><title>Role&#45;&gt;Grade</title>
<path fill="none" stroke="black" d="M293.542,-300.945C288.23,-271.085 279.383,-221.36 273.888,-190.473"/>
<ellipse fill="none" stroke="black" cx="294.251" cy="-304.926" rx="4.00001" ry="4.00001"/>
<polygon fill="black" stroke="black" points="273.847,-190.242 276.526,-179.609 272.971,-185.319 272.095,-180.397 272.095,-180.397 272.095,-180.397 272.971,-185.319 267.665,-181.185 273.847,-190.242 273.847,-190.242"/>
</g>
<!-- User -->
<g id="node18" class="node"><title>User</title>
<ellipse fill="none" stroke="black" cx="326" cy="-234" rx="28.3955" ry="18"/>
<text text-anchor="middle" x="326" y="-230.3" font-family="Times,serif" font-size="14.00">User</text>
</g>
<!-- Role&#45;&gt;User -->
<g id="edge20" class="edge"><title>Role&#45;&gt;User</title>
<path fill="none" stroke="black" d="M306.332,-298.922C309.978,-287.073 314.24,-273.218 317.864,-261.443"/>
<polygon fill="black" stroke="black" points="306.208,-299.326 298.966,-307.56 304.737,-304.105 303.267,-308.884 303.267,-308.884 303.267,-308.884 304.737,-304.105 307.568,-310.207 306.208,-299.326 306.208,-299.326"/>
<polygon fill="black" stroke="black" points="317.911,-261.29 325.153,-253.056 319.381,-256.511 320.852,-251.732 320.852,-251.732 320.852,-251.732 319.381,-256.511 316.551,-250.409 317.911,-261.29 317.911,-261.29"/>
</g>
<!-- Setting -->
<g id="node15" class="node"><title>Setting</title>
<ellipse fill="none" stroke="black" cx="1089" cy="-327" rx="37.0701" ry="18"/>
<text text-anchor="middle" x="1089" y="-323.3" font-family="Times,serif" font-size="14.00">Setting</text>
</g>
<!-- Snippet&#45;&gt;Association -->
<g id="edge22" class="edge"><title>Snippet&#45;&gt;Association</title>
<path fill="none" stroke="black" d="M511.901,-211.281C503.911,-203.055 494.804,-193.681 486.755,-185.395"/>
<ellipse fill="none" stroke="black" cx="514.783" cy="-214.247" rx="4.00002" ry="4.00002"/>
<ellipse fill="black" stroke="black" cx="483.628" cy="-182.176" rx="4.00002" ry="4.00002"/>
</g>
<!-- Snippet&#45;&gt;Page -->
<g id="edge24" class="edge"><title>Snippet&#45;&gt;Page</title>
<path fill="none" stroke="black" d="M539.115,-260.229C539.969,-272.982 539.961,-288.405 539.092,-301.11"/>
<ellipse fill="none" stroke="black" cx="538.735" cy="-255.878" rx="4" ry="4"/>
<ellipse fill="black" stroke="black" cx="538.718" cy="-305.325" rx="4" ry="4"/>
</g>
<!-- SnippetComponent -->
<g id="node32" class="node"><title>SnippetComponent</title>
<ellipse fill="none" stroke="black" cx="621" cy="-162" rx="83.2649" ry="18"/>
<text text-anchor="middle" x="621" y="-158.3" font-family="Times,serif" font-size="14.00">SnippetComponent</text>
</g>
<!-- Snippet&#45;&gt;SnippetComponent -->
<g id="edge26" class="edge"><title>Snippet&#45;&gt;SnippetComponent</title>
<path fill="none" stroke="black" d="M557.954,-213.15C568.592,-204.688 581.07,-194.763 592.105,-185.985"/>
<ellipse fill="none" stroke="black" cx="554.793" cy="-215.665" rx="4.00002" ry="4.00002"/>
<polygon fill="black" stroke="black" points="592.382,-185.764 603.009,-183.061 596.295,-182.652 600.208,-179.539 600.208,-179.539 600.208,-179.539 596.295,-182.652 597.407,-176.017 592.382,-185.764 592.382,-185.764"/>
</g>
<!-- Theme -->
<g id="node17" class="node"><title>Theme</title>
<polygon fill="none" stroke="black" points="1200,-345 1144,-345 1144,-309 1200,-309 1200,-345"/>
<text text-anchor="middle" x="1172" y="-323.3" font-family="Times,serif" font-size="14.00">Theme</text>
</g>
<!-- User&#45;&gt;Article -->
<g id="edge30" class="edge"><title>User&#45;&gt;Article</title>
<path fill="none" stroke="black" d="M336.601,-209.062C339.448,-202.632 342.542,-195.647 345.439,-189.106"/>
<ellipse fill="none" stroke="black" cx="334.966" cy="-212.754" rx="4.00002" ry="4.00002"/>
<polygon fill="black" stroke="black" points="345.442,-189.1 353.605,-181.778 347.466,-184.528 349.491,-179.956 349.491,-179.956 349.491,-179.956 347.466,-184.528 345.376,-178.134 345.442,-189.1 345.442,-189.1"/>
</g>
<!-- User&#45;&gt;Grade -->
<g id="edge28" class="edge"><title>User&#45;&gt;Grade</title>
<path fill="none" stroke="black" d="M308.287,-211.247C301.981,-203.503 294.848,-194.743 288.408,-186.834"/>
<ellipse fill="none" stroke="black" cx="310.824" cy="-214.363" rx="4.00002" ry="4.00002"/>
<polygon fill="black" stroke="black" points="288.324,-186.732 285.499,-176.136 285.167,-182.854 282.01,-178.977 282.01,-178.977 282.01,-178.977 285.167,-182.854 278.52,-181.819 288.324,-186.732 288.324,-186.732"/>
</g>
</g>
</svg>
