<?xml version="1.0" encoding="UTF-8" standalone="no"?>
<!DOCTYPE svg PUBLIC "-//W3C//DTD SVG 1.1//EN"
 "http://www.w3.org/Graphics/SVG/1.1/DTD/svg11.dtd">
<!-- Generated by graphviz version 2.28.0 (20110722.1315)
 -->
<!-- Title: models_diagram Pages: 1 -->
<svg width="1514pt" height="1198pt"
 viewBox="0.00 0.00 1514.00 1198.00" xmlns="http://www.w3.org/2000/svg" xmlns:xlink="http://www.w3.org/1999/xlink">
<g id="graph1" class="graph" transform="scale(1 1) rotate(0) translate(4 1194)">
<title>models_diagram</title>
<polygon fill="white" stroke="white" points="-4,5 -4,-1194 1511,-1194 1511,5 -4,5"/>
<!-- _diagram_info -->
<g id="node1" class="node"><title>_diagram_info</title>
<text text-anchor="start" x="8" y="-1063.6" font-family="Times,serif" font-size="13.00">Models diagram</text>
<text text-anchor="start" x="8" y="-1049.6" font-family="Times,serif" font-size="13.00">Date: Aug 22 2011 &#45; 08:16</text>
<text text-anchor="start" x="8" y="-1035.6" font-family="Times,serif" font-size="13.00">Migration version: 0</text>
<text text-anchor="start" x="8" y="-1021.6" font-family="Times,serif" font-size="13.00">Generated by RailRoady 1.0.2</text>
<text text-anchor="start" x="8" y="-1007.6" font-family="Times,serif" font-size="13.00">http://railroady.prestonlee.com</text>
</g>
<!-- Ability -->
<g id="node2" class="node"><title>Ability</title>
<polygon fill="none" stroke="black" points="194.5,-1016 194.5,-1062 251.5,-1062 251.5,-1016 194.5,-1016"/>
<text text-anchor="middle" x="223" y="-1046.8" font-family="Times,serif" font-size="14.00">Ability</text>
<polyline fill="none" stroke="black" points="194.5,-1039 251.5,-1039 "/>
<text text-anchor="middle" x="223" y="-1023.8" font-family="Times,serif" font-size="14.00"> </text>
</g>
<!-- Article -->
<g id="node3" class="node"><title>Article</title>
<polyline fill="none" stroke="black" points="372,-212.5 528,-212.5 "/>
<path fill="none" stroke="black" d="M528,-212.5C534,-212.5 540,-218.5 540,-224.5"/>
<polyline fill="none" stroke="black" points="540,-224.5 540,-471.5 "/>
<path fill="none" stroke="black" d="M540,-471.5C540,-477.5 534,-483.5 528,-483.5"/>
<polyline fill="none" stroke="black" points="528,-483.5 372,-483.5 "/>
<path fill="none" stroke="black" d="M372,-483.5C366,-483.5 360,-477.5 360,-471.5"/>
<polyline fill="none" stroke="black" points="360,-471.5 360,-224.5 "/>
<path fill="none" stroke="black" d="M360,-224.5C360,-218.5 366,-212.5 372,-212.5"/>
<text text-anchor="middle" x="450" y="-468.3" font-family="Times,serif" font-size="14.00">Article</text>
<polyline fill="none" stroke="black" points="360,-460.5 540,-460.5 "/>
<text text-anchor="start" x="368" y="-445.3" font-family="Times,serif" font-size="14.00">title :string</text>
<text text-anchor="start" x="368" y="-430.3" font-family="Times,serif" font-size="14.00">short :text</text>
<text text-anchor="start" x="368" y="-415.3" font-family="Times,serif" font-size="14.00">body :text</text>
<text text-anchor="start" x="368" y="-400.3" font-family="Times,serif" font-size="14.00">meta_title :string</text>
<text text-anchor="start" x="368" y="-385.3" font-family="Times,serif" font-size="14.00">meta_keyword :string</text>
<text text-anchor="start" x="368" y="-370.3" font-family="Times,serif" font-size="14.00">meta_desc :string</text>
<text text-anchor="start" x="368" y="-355.3" font-family="Times,serif" font-size="14.00">pretty_url :string</text>
<text text-anchor="start" x="368" y="-340.3" font-family="Times,serif" font-size="14.00">published :boolean</text>
<text text-anchor="start" x="368" y="-325.3" font-family="Times,serif" font-size="14.00">publish_at :datetime</text>
<text text-anchor="start" x="368" y="-310.3" font-family="Times,serif" font-size="14.00">script :text</text>
<text text-anchor="start" x="368" y="-295.3" font-family="Times,serif" font-size="14.00">lang :string</text>
<text text-anchor="start" x="368" y="-280.3" font-family="Times,serif" font-size="14.00">reserved :boolean</text>
<text text-anchor="start" x="368" y="-265.3" font-family="Times,serif" font-size="14.00">comments_enabled :boolean</text>
<text text-anchor="start" x="368" y="-250.3" font-family="Times,serif" font-size="14.00">hot :boolean</text>
<text text-anchor="start" x="368" y="-235.3" font-family="Times,serif" font-size="14.00">created_at :datetime</text>
<text text-anchor="start" x="368" y="-220.3" font-family="Times,serif" font-size="14.00">updated_at :datetime</text>
</g>
<!-- Categorization -->
<g id="node5" class="node"><title>Categorization</title>
<polyline fill="none" stroke="black" points="394.5,-0.5 505.5,-0.5 "/>
<path fill="none" stroke="black" d="M505.5,-0.5C511.5,-0.5 517.5,-6.5 517.5,-12.5"/>
<polyline fill="none" stroke="black" points="517.5,-12.5 517.5,-49.5 "/>
<path fill="none" stroke="black" d="M517.5,-49.5C517.5,-55.5 511.5,-61.5 505.5,-61.5"/>
<polyline fill="none" stroke="black" points="505.5,-61.5 394.5,-61.5 "/>
<path fill="none" stroke="black" d="M394.5,-61.5C388.5,-61.5 382.5,-55.5 382.5,-49.5"/>
<polyline fill="none" stroke="black" points="382.5,-49.5 382.5,-12.5 "/>
<path fill="none" stroke="black" d="M382.5,-12.5C382.5,-6.5 388.5,-0.5 394.5,-0.5"/>
<text text-anchor="middle" x="450" y="-46.3" font-family="Times,serif" font-size="14.00">Categorization</text>
<polyline fill="none" stroke="black" points="382.5,-38.5 517.5,-38.5 "/>
<text text-anchor="start" x="390.5" y="-23.3" font-family="Times,serif" font-size="14.00">created_at :datetime</text>
<text text-anchor="start" x="390.5" y="-8.3" font-family="Times,serif" font-size="14.00">updated_at :datetime</text>
</g>
<!-- Article&#45;&gt;Categorization -->
<g id="edge2" class="edge"><title>Article&#45;&gt;Categorization</title>
<path fill="none" stroke="black" d="M418.641,-203.911C415.198,-169.068 415.078,-132.039 422,-98 423.82,-89.0493 426.897,-79.807 430.362,-71.1756"/>
<ellipse fill="none" stroke="black" cx="419.106" cy="-208.268" rx="4" ry="4"/>
<polygon fill="black" stroke="black" points="430.464,-70.935 438.53,-63.5052 432.428,-66.3366 434.391,-61.7382 434.391,-61.7382 434.391,-61.7382 432.428,-66.3366 430.252,-59.9712 430.464,-70.935 430.464,-70.935"/>
</g>
<!-- Category -->
<g id="node6" class="node"><title>Category</title>
<polyline fill="none" stroke="black" points="442.5,-99 553.5,-99 "/>
<path fill="none" stroke="black" d="M553.5,-99C559.5,-99 565.5,-105 565.5,-111"/>
<polyline fill="none" stroke="black" points="565.5,-111 565.5,-163 "/>
<path fill="none" stroke="black" d="M565.5,-163C565.5,-169 559.5,-175 553.5,-175"/>
<polyline fill="none" stroke="black" points="553.5,-175 442.5,-175 "/>
<path fill="none" stroke="black" d="M442.5,-175C436.5,-175 430.5,-169 430.5,-163"/>
<polyline fill="none" stroke="black" points="430.5,-163 430.5,-111 "/>
<path fill="none" stroke="black" d="M430.5,-111C430.5,-105 436.5,-99 442.5,-99"/>
<text text-anchor="middle" x="498" y="-159.8" font-family="Times,serif" font-size="14.00">Category</text>
<polyline fill="none" stroke="black" points="430.5,-152 565.5,-152 "/>
<text text-anchor="start" x="438.5" y="-136.8" font-family="Times,serif" font-size="14.00">name :string</text>
<text text-anchor="start" x="438.5" y="-121.8" font-family="Times,serif" font-size="14.00">created_at :datetime</text>
<text text-anchor="start" x="438.5" y="-106.8" font-family="Times,serif" font-size="14.00">updated_at :datetime</text>
</g>
<!-- Article&#45;&gt;Category -->
<g id="edge4" class="edge"><title>Article&#45;&gt;Category</title>
<path fill="none" stroke="black" d="M483.22,-202.355C484.584,-196.414 485.902,-190.676 487.151,-185.237"/>
<polygon fill="black" stroke="black" points="483.18,-202.528 476.556,-211.267 482.061,-207.401 480.942,-212.274 480.942,-212.274 480.942,-212.274 482.061,-207.401 485.328,-213.281 483.18,-202.528 483.18,-202.528"/>
<polygon fill="black" stroke="black" points="487.224,-184.919 493.848,-176.18 488.343,-180.046 489.463,-175.173 489.463,-175.173 489.463,-175.173 488.343,-180.046 485.077,-174.166 487.224,-184.919 487.224,-184.919"/>
</g>
<!-- Association -->
<g id="node4" class="node"><title>Association</title>
<polyline fill="none" stroke="black" points="570.5,-310 681.5,-310 "/>
<path fill="none" stroke="black" d="M681.5,-310C687.5,-310 693.5,-316 693.5,-322"/>
<polyline fill="none" stroke="black" points="693.5,-322 693.5,-374 "/>
<path fill="none" stroke="black" d="M693.5,-374C693.5,-380 687.5,-386 681.5,-386"/>
<polyline fill="none" stroke="black" points="681.5,-386 570.5,-386 "/>
<path fill="none" stroke="black" d="M570.5,-386C564.5,-386 558.5,-380 558.5,-374"/>
<polyline fill="none" stroke="black" points="558.5,-374 558.5,-322 "/>
<path fill="none" stroke="black" d="M558.5,-322C558.5,-316 564.5,-310 570.5,-310"/>
<text text-anchor="middle" x="626" y="-370.8" font-family="Times,serif" font-size="14.00">Association</text>
<polyline fill="none" stroke="black" points="558.5,-363 693.5,-363 "/>
<text text-anchor="start" x="566.5" y="-347.8" font-family="Times,serif" font-size="14.00">position :integer</text>
<text text-anchor="start" x="566.5" y="-332.8" font-family="Times,serif" font-size="14.00">created_at :datetime</text>
<text text-anchor="start" x="566.5" y="-317.8" font-family="Times,serif" font-size="14.00">updated_at :datetime</text>
</g>
<!-- Category&#45;&gt;Categorization -->
<g id="edge6" class="edge"><title>Category&#45;&gt;Categorization</title>
<path fill="none" stroke="black" d="M477.342,-91.2402C474.259,-84.561 471.101,-77.7192 468.077,-71.1674"/>
<ellipse fill="none" stroke="black" cx="479.13" cy="-95.1155" rx="4.00002" ry="4.00002"/>
<polygon fill="black" stroke="black" points="467.958,-70.9079 467.853,-59.9426 465.862,-66.3681 463.767,-61.8283 463.767,-61.8283 463.767,-61.8283 465.862,-66.3681 459.681,-63.7141 467.958,-70.9079 467.958,-70.9079"/>
</g>
<!-- Category&#45;&gt;Category -->
<g id="edge8" class="edge"><title>Category&#45;&gt;Category</title>
<path fill="none" stroke="black" d="M574.995,-151.11C579.984,-147.817 583,-143.114 583,-137 583,-130.886 579.984,-126.183 574.995,-122.89"/>
<polygon fill="black" stroke="black" points="574.866,-151.166 563.901,-150.991 570.274,-153.145 565.682,-155.123 565.682,-155.123 565.682,-155.123 570.274,-153.145 567.463,-159.256 574.866,-151.166 574.866,-151.166"/>
<polygon fill="black" stroke="black" points="574.866,-122.834 567.463,-114.744 570.274,-120.855 565.682,-118.877 565.682,-118.877 565.682,-118.877 570.274,-120.855 563.901,-123.009 574.866,-122.834 574.866,-122.834"/>
</g>
<!-- Ckeditor::Asset -->
<g id="node7" class="node"><title>Ckeditor::Asset</title>
<polyline fill="none" stroke="black" points="922,-978.5 1060,-978.5 "/>
<path fill="none" stroke="black" d="M1060,-978.5C1066,-978.5 1072,-984.5 1072,-990.5"/>
<polyline fill="none" stroke="black" points="1072,-990.5 1072,-1087.5 "/>
<path fill="none" stroke="black" d="M1072,-1087.5C1072,-1093.5 1066,-1099.5 1060,-1099.5"/>
<polyline fill="none" stroke="black" points="1060,-1099.5 922,-1099.5 "/>
<path fill="none" stroke="black" d="M922,-1099.5C916,-1099.5 910,-1093.5 910,-1087.5"/>
<polyline fill="none" stroke="black" points="910,-1087.5 910,-990.5 "/>
<path fill="none" stroke="black" d="M910,-990.5C910,-984.5 916,-978.5 922,-978.5"/>
<text text-anchor="middle" x="991" y="-1084.3" font-family="Times,serif" font-size="14.00">Ckeditor::Asset</text>
<polyline fill="none" stroke="black" points="910,-1076.5 1072,-1076.5 "/>
<text text-anchor="start" x="918" y="-1061.3" font-family="Times,serif" font-size="14.00">data_file_name :string</text>
<text text-anchor="start" x="918" y="-1046.3" font-family="Times,serif" font-size="14.00">data_content_type :string</text>
<text text-anchor="start" x="918" y="-1031.3" font-family="Times,serif" font-size="14.00">data_file_size :integer</text>
<text text-anchor="start" x="918" y="-1016.3" font-family="Times,serif" font-size="14.00">assetable_type :string</text>
<text text-anchor="start" x="918" y="-1001.3" font-family="Times,serif" font-size="14.00">created_at :datetime</text>
<text text-anchor="start" x="918" y="-986.3" font-family="Times,serif" font-size="14.00">updated_at :datetime</text>
</g>
<!-- Ckeditor::AttachmentFile -->
<g id="node8" class="node"><title>Ckeditor::AttachmentFile</title>
<polyline fill="none" stroke="black" points="824.5,-625.5 963.5,-625.5 "/>
<path fill="none" stroke="black" d="M963.5,-625.5C969.5,-625.5 975.5,-631.5 975.5,-637.5"/>
<polyline fill="none" stroke="black" points="975.5,-637.5 975.5,-734.5 "/>
<path fill="none" stroke="black" d="M975.5,-734.5C975.5,-740.5 969.5,-746.5 963.5,-746.5"/>
<polyline fill="none" stroke="black" points="963.5,-746.5 824.5,-746.5 "/>
<path fill="none" stroke="black" d="M824.5,-746.5C818.5,-746.5 812.5,-740.5 812.5,-734.5"/>
<polyline fill="none" stroke="black" points="812.5,-734.5 812.5,-637.5 "/>
<path fill="none" stroke="black" d="M812.5,-637.5C812.5,-631.5 818.5,-625.5 824.5,-625.5"/>
<text text-anchor="middle" x="894" y="-731.3" font-family="Times,serif" font-size="14.00">Ckeditor::AttachmentFile</text>
<polyline fill="none" stroke="black" points="812.5,-723.5 975.5,-723.5 "/>
<text text-anchor="start" x="820.5" y="-708.3" font-family="Times,serif" font-size="14.00">data_file_name :string</text>
<text text-anchor="start" x="820.5" y="-693.3" font-family="Times,serif" font-size="14.00">data_content_type :string</text>
<text text-anchor="start" x="820.5" y="-678.3" font-family="Times,serif" font-size="14.00">data_file_size :integer</text>
<text text-anchor="start" x="820.5" y="-663.3" font-family="Times,serif" font-size="14.00">assetable_type :string</text>
<text text-anchor="start" x="820.5" y="-648.3" font-family="Times,serif" font-size="14.00">created_at :datetime</text>
<text text-anchor="start" x="820.5" y="-633.3" font-family="Times,serif" font-size="14.00">updated_at :datetime</text>
</g>
<!-- Ckeditor::Asset&#45;&gt;Ckeditor::AttachmentFile -->
<g id="edge10" class="edge"><title>Ckeditor::Asset&#45;&gt;Ckeditor::AttachmentFile</title>
<path fill="none" stroke="black" d="M974.545,-978.458C956.681,-913.815 928.318,-811.183 910.454,-746.541"/>
</g>
<!-- Ckeditor::Picture -->
<g id="node9" class="node"><title>Ckeditor::Picture</title>
<polyline fill="none" stroke="black" points="1006,-625.5 1144,-625.5 "/>
<path fill="none" stroke="black" d="M1144,-625.5C1150,-625.5 1156,-631.5 1156,-637.5"/>
<polyline fill="none" stroke="black" points="1156,-637.5 1156,-734.5 "/>
<path fill="none" stroke="black" d="M1156,-734.5C1156,-740.5 1150,-746.5 1144,-746.5"/>
<polyline fill="none" stroke="black" points="1144,-746.5 1006,-746.5 "/>
<path fill="none" stroke="black" d="M1006,-746.5C1000,-746.5 994,-740.5 994,-734.5"/>
<polyline fill="none" stroke="black" points="994,-734.5 994,-637.5 "/>
<path fill="none" stroke="black" d="M994,-637.5C994,-631.5 1000,-625.5 1006,-625.5"/>
<text text-anchor="middle" x="1075" y="-731.3" font-family="Times,serif" font-size="14.00">Ckeditor::Picture</text>
<polyline fill="none" stroke="black" points="994,-723.5 1156,-723.5 "/>
<text text-anchor="start" x="1002" y="-708.3" font-family="Times,serif" font-size="14.00">data_file_name :string</text>
<text text-anchor="start" x="1002" y="-693.3" font-family="Times,serif" font-size="14.00">data_content_type :string</text>
<text text-anchor="start" x="1002" y="-678.3" font-family="Times,serif" font-size="14.00">data_file_size :integer</text>
<text text-anchor="start" x="1002" y="-663.3" font-family="Times,serif" font-size="14.00">assetable_type :string</text>
<text text-anchor="start" x="1002" y="-648.3" font-family="Times,serif" font-size="14.00">created_at :datetime</text>
<text text-anchor="start" x="1002" y="-633.3" font-family="Times,serif" font-size="14.00">updated_at :datetime</text>
</g>
<!-- Ckeditor::Asset&#45;&gt;Ckeditor::Picture -->
<g id="edge12" class="edge"><title>Ckeditor::Asset&#45;&gt;Ckeditor::Picture</title>
<path fill="none" stroke="black" d="M1005.25,-978.458C1020.72,-913.815 1045.28,-811.183 1060.75,-746.541"/>
</g>
<!-- Grade -->
<g id="node10" class="node"><title>Grade</title>
<polyline fill="none" stroke="black" points="218.5,-317.5 329.5,-317.5 "/>
<path fill="none" stroke="black" d="M329.5,-317.5C335.5,-317.5 341.5,-323.5 341.5,-329.5"/>
<polyline fill="none" stroke="black" points="341.5,-329.5 341.5,-366.5 "/>
<path fill="none" stroke="black" d="M341.5,-366.5C341.5,-372.5 335.5,-378.5 329.5,-378.5"/>
<polyline fill="none" stroke="black" points="329.5,-378.5 218.5,-378.5 "/>
<path fill="none" stroke="black" d="M218.5,-378.5C212.5,-378.5 206.5,-372.5 206.5,-366.5"/>
<polyline fill="none" stroke="black" points="206.5,-366.5 206.5,-329.5 "/>
<path fill="none" stroke="black" d="M206.5,-329.5C206.5,-323.5 212.5,-317.5 218.5,-317.5"/>
<text text-anchor="middle" x="274" y="-363.3" font-family="Times,serif" font-size="14.00">Grade</text>
<polyline fill="none" stroke="black" points="206.5,-355.5 341.5,-355.5 "/>
<text text-anchor="start" x="214.5" y="-340.3" font-family="Times,serif" font-size="14.00">created_at :datetime</text>
<text text-anchor="start" x="214.5" y="-325.3" font-family="Times,serif" font-size="14.00">updated_at :datetime</text>
</g>
<!-- Language -->
<g id="node11" class="node"><title>Language</title>
<polygon fill="none" stroke="black" points="1090,-1016 1090,-1062 1164,-1062 1164,-1016 1090,-1016"/>
<text text-anchor="middle" x="1127" y="-1046.8" font-family="Times,serif" font-size="14.00">Language</text>
<polyline fill="none" stroke="black" points="1090,-1039 1164,-1039 "/>
<text text-anchor="middle" x="1127" y="-1023.8" font-family="Times,serif" font-size="14.00"> </text>
</g>
<!-- Layout -->
<g id="node12" class="node"><title>Layout</title>
<polygon fill="none" stroke="black" points="1182,-1016 1182,-1062 1240,-1062 1240,-1016 1182,-1016"/>
<text text-anchor="middle" x="1211" y="-1046.8" font-family="Times,serif" font-size="14.00">Layout</text>
<polyline fill="none" stroke="black" points="1182,-1039 1240,-1039 "/>
<text text-anchor="middle" x="1211" y="-1023.8" font-family="Times,serif" font-size="14.00"> </text>
</g>
<!-- Page -->
<g id="node13" class="node"><title>Page</title>
<polyline fill="none" stroke="black" points="653.5,-888.5 794.5,-888.5 "/>
<path fill="none" stroke="black" d="M794.5,-888.5C800.5,-888.5 806.5,-894.5 806.5,-900.5"/>
<polyline fill="none" stroke="black" points="806.5,-900.5 806.5,-1177.5 "/>
<path fill="none" stroke="black" d="M806.5,-1177.5C806.5,-1183.5 800.5,-1189.5 794.5,-1189.5"/>
<polyline fill="none" stroke="black" points="794.5,-1189.5 653.5,-1189.5 "/>
<path fill="none" stroke="black" d="M653.5,-1189.5C647.5,-1189.5 641.5,-1183.5 641.5,-1177.5"/>
<polyline fill="none" stroke="black" points="641.5,-1177.5 641.5,-900.5 "/>
<path fill="none" stroke="black" d="M641.5,-900.5C641.5,-894.5 647.5,-888.5 653.5,-888.5"/>
<text text-anchor="middle" x="724" y="-1174.3" font-family="Times,serif" font-size="14.00">Page</text>
<polyline fill="none" stroke="black" points="641.5,-1166.5 806.5,-1166.5 "/>
<text text-anchor="start" x="649.5" y="-1151.3" font-family="Times,serif" font-size="14.00">title :string</text>
<text text-anchor="start" x="649.5" y="-1136.3" font-family="Times,serif" font-size="14.00">pretty_url :string</text>
<text text-anchor="start" x="649.5" y="-1121.3" font-family="Times,serif" font-size="14.00">ancestry :string</text>
<text text-anchor="start" x="649.5" y="-1106.3" font-family="Times,serif" font-size="14.00">position :integer</text>
<text text-anchor="start" x="649.5" y="-1091.3" font-family="Times,serif" font-size="14.00">published :boolean</text>
<text text-anchor="start" x="649.5" y="-1076.3" font-family="Times,serif" font-size="14.00">publish_at :datetime</text>
<text text-anchor="start" x="649.5" y="-1061.3" font-family="Times,serif" font-size="14.00">lang :string</text>
<text text-anchor="start" x="649.5" y="-1046.3" font-family="Times,serif" font-size="14.00">visible_in_menu :boolean</text>
<text text-anchor="start" x="649.5" y="-1031.3" font-family="Times,serif" font-size="14.00">meta_title :string</text>
<text text-anchor="start" x="649.5" y="-1016.3" font-family="Times,serif" font-size="14.00">meta_description :string</text>
<text text-anchor="start" x="649.5" y="-1001.3" font-family="Times,serif" font-size="14.00">meta_keywords :string</text>
<text text-anchor="start" x="649.5" y="-986.3" font-family="Times,serif" font-size="14.00">script :text</text>
<text text-anchor="start" x="649.5" y="-971.3" font-family="Times,serif" font-size="14.00">div_class :string</text>
<text text-anchor="start" x="649.5" y="-956.3" font-family="Times,serif" font-size="14.00">div_style :string</text>
<text text-anchor="start" x="649.5" y="-941.3" font-family="Times,serif" font-size="14.00">reserved :boolean</text>
<text text-anchor="start" x="649.5" y="-926.3" font-family="Times,serif" font-size="14.00">layout_name :string</text>
<text text-anchor="start" x="649.5" y="-911.3" font-family="Times,serif" font-size="14.00">created_at :datetime</text>
<text text-anchor="start" x="649.5" y="-896.3" font-family="Times,serif" font-size="14.00">updated_at :datetime</text>
</g>
<!-- Page&#45;&gt;Association -->
<g id="edge14" class="edge"><title>Page&#45;&gt;Association</title>
<path fill="none" stroke="black" d="M652.602,-880.605C649.687,-871.037 647.112,-861.456 645,-852 608.36,-687.92 616.06,-486.384 622.149,-396.351"/>
<ellipse fill="none" stroke="black" cx="653.811" cy="-884.457" rx="4.00001" ry="4.00001"/>
<polygon fill="black" stroke="black" points="622.162,-396.166 627.351,-386.506 622.512,-391.178 622.862,-386.191 622.862,-386.191 622.862,-386.191 622.512,-391.178 618.373,-385.876 622.162,-396.166 622.162,-396.166"/>
</g>
<!-- Snippet -->
<g id="node16" class="node"><title>Snippet</title>
<polyline fill="none" stroke="black" points="666,-565.5 782,-565.5 "/>
<path fill="none" stroke="black" d="M782,-565.5C788,-565.5 794,-571.5 794,-577.5"/>
<polyline fill="none" stroke="black" points="794,-577.5 794,-794.5 "/>
<path fill="none" stroke="black" d="M794,-794.5C794,-800.5 788,-806.5 782,-806.5"/>
<polyline fill="none" stroke="black" points="782,-806.5 666,-806.5 "/>
<path fill="none" stroke="black" d="M666,-806.5C660,-806.5 654,-800.5 654,-794.5"/>
<polyline fill="none" stroke="black" points="654,-794.5 654,-577.5 "/>
<path fill="none" stroke="black" d="M654,-577.5C654,-571.5 660,-565.5 666,-565.5"/>
<text text-anchor="middle" x="724" y="-791.3" font-family="Times,serif" font-size="14.00">Snippet</text>
<polyline fill="none" stroke="black" points="654,-783.5 794,-783.5 "/>
<text text-anchor="start" x="662" y="-768.3" font-family="Times,serif" font-size="14.00">title :string</text>
<text text-anchor="start" x="662" y="-753.3" font-family="Times,serif" font-size="14.00">description :text</text>
<text text-anchor="start" x="662" y="-738.3" font-family="Times,serif" font-size="14.00">deleted :boolean</text>
<text text-anchor="start" x="662" y="-723.3" font-family="Times,serif" font-size="14.00">published :boolean</text>
<text text-anchor="start" x="662" y="-708.3" font-family="Times,serif" font-size="14.00">publish_at :datetime</text>
<text text-anchor="start" x="662" y="-693.3" font-family="Times,serif" font-size="14.00">div_class :string</text>
<text text-anchor="start" x="662" y="-678.3" font-family="Times,serif" font-size="14.00">div_style :string</text>
<text text-anchor="start" x="662" y="-663.3" font-family="Times,serif" font-size="14.00">created_at :datetime</text>
<text text-anchor="start" x="662" y="-648.3" font-family="Times,serif" font-size="14.00">updated_at :datetime</text>
<text text-anchor="start" x="662" y="-633.3" font-family="Times,serif" font-size="14.00">area :string</text>
<text text-anchor="start" x="662" y="-618.3" font-family="Times,serif" font-size="14.00">cell_controller :string</text>
<text text-anchor="start" x="662" y="-603.3" font-family="Times,serif" font-size="14.00">cell_action :string</text>
<text text-anchor="start" x="662" y="-588.3" font-family="Times,serif" font-size="14.00">options :text</text>
<text text-anchor="start" x="662" y="-573.3" font-family="Times,serif" font-size="14.00">handler :string</text>
</g>
<!-- Page&#45;&gt;Snippet -->
<g id="edge16" class="edge"><title>Page&#45;&gt;Snippet</title>
<path fill="none" stroke="black" d="M717.274,-878.103C717.211,-857.527 717.273,-836.663 717.459,-816.655"/>
<polygon fill="black" stroke="black" points="717.275,-878.381 712.816,-888.399 717.295,-883.381 717.316,-888.381 717.316,-888.381 717.316,-888.381 717.295,-883.381 721.816,-888.363 717.275,-878.381 717.275,-878.381"/>
<polygon fill="black" stroke="black" points="717.46,-816.592 722.064,-806.639 717.512,-811.592 717.564,-806.592 717.564,-806.592 717.564,-806.592 717.512,-811.592 713.064,-806.545 717.46,-816.592 717.46,-816.592"/>
</g>
<!-- Role -->
<g id="node14" class="node"><title>Role</title>
<polyline fill="none" stroke="black" points="281.5,-1001 392.5,-1001 "/>
<path fill="none" stroke="black" d="M392.5,-1001C398.5,-1001 404.5,-1007 404.5,-1013"/>
<polyline fill="none" stroke="black" points="404.5,-1013 404.5,-1065 "/>
<path fill="none" stroke="black" d="M404.5,-1065C404.5,-1071 398.5,-1077 392.5,-1077"/>
<polyline fill="none" stroke="black" points="392.5,-1077 281.5,-1077 "/>
<path fill="none" stroke="black" d="M281.5,-1077C275.5,-1077 269.5,-1071 269.5,-1065"/>
<polyline fill="none" stroke="black" points="269.5,-1065 269.5,-1013 "/>
<path fill="none" stroke="black" d="M269.5,-1013C269.5,-1007 275.5,-1001 281.5,-1001"/>
<text text-anchor="middle" x="337" y="-1061.8" font-family="Times,serif" font-size="14.00">Role</text>
<polyline fill="none" stroke="black" points="269.5,-1054 404.5,-1054 "/>
<text text-anchor="start" x="277.5" y="-1038.8" font-family="Times,serif" font-size="14.00">name :string</text>
<text text-anchor="start" x="277.5" y="-1023.8" font-family="Times,serif" font-size="14.00">created_at :datetime</text>
<text text-anchor="start" x="277.5" y="-1008.8" font-family="Times,serif" font-size="14.00">updated_at :datetime</text>
</g>
<!-- Role&#45;&gt;Grade -->
<g id="edge18" class="edge"><title>Role&#45;&gt;Grade</title>
<path fill="none" stroke="black" d="M323.834,-993.289C313.452,-955.896 299.651,-900.962 293,-852 269.737,-680.76 271.077,-473.931 272.89,-388.676"/>
<ellipse fill="none" stroke="black" cx="324.914" cy="-997.142" rx="4.00001" ry="4.00001"/>
<polygon fill="black" stroke="black" points="272.891,-388.652 277.617,-378.757 273.004,-383.653 273.118,-378.654 273.118,-378.654 273.118,-378.654 273.004,-383.653 268.619,-378.552 272.891,-388.652 272.891,-388.652"/>
</g>
<!-- User -->
<g id="node18" class="node"><title>User</title>
<polyline fill="none" stroke="black" points="314,-520.5 486,-520.5 "/>
<path fill="none" stroke="black" d="M486,-520.5C492,-520.5 498,-526.5 498,-532.5"/>
<polyline fill="none" stroke="black" points="498,-532.5 498,-839.5 "/>
<path fill="none" stroke="black" d="M498,-839.5C498,-845.5 492,-851.5 486,-851.5"/>
<polyline fill="none" stroke="black" points="486,-851.5 314,-851.5 "/>
<path fill="none" stroke="black" d="M314,-851.5C308,-851.5 302,-845.5 302,-839.5"/>
<polyline fill="none" stroke="black" points="302,-839.5 302,-532.5 "/>
<path fill="none" stroke="black" d="M302,-532.5C302,-526.5 308,-520.5 314,-520.5"/>
<text text-anchor="middle" x="400" y="-836.3" font-family="Times,serif" font-size="14.00">User</text>
<polyline fill="none" stroke="black" points="302,-828.5 498,-828.5 "/>
<text text-anchor="start" x="310" y="-813.3" font-family="Times,serif" font-size="14.00">email :string</text>
<text text-anchor="start" x="310" y="-798.3" font-family="Times,serif" font-size="14.00">firstname :string</text>
<text text-anchor="start" x="310" y="-783.3" font-family="Times,serif" font-size="14.00">lastname :string</text>
<text text-anchor="start" x="310" y="-768.3" font-family="Times,serif" font-size="14.00">encrypted_password :string</text>
<text text-anchor="start" x="310" y="-753.3" font-family="Times,serif" font-size="14.00">reset_password_token :string</text>
<text text-anchor="start" x="310" y="-738.3" font-family="Times,serif" font-size="14.00">remember_created_at :datetime</text>
<text text-anchor="start" x="310" y="-723.3" font-family="Times,serif" font-size="14.00">current_sign_in_at :datetime</text>
<text text-anchor="start" x="310" y="-708.3" font-family="Times,serif" font-size="14.00">last_sign_in_at :datetime</text>
<text text-anchor="start" x="310" y="-693.3" font-family="Times,serif" font-size="14.00">current_sign_in_ip :string</text>
<text text-anchor="start" x="310" y="-678.3" font-family="Times,serif" font-size="14.00">last_sign_in_ip :string</text>
<text text-anchor="start" x="310" y="-663.3" font-family="Times,serif" font-size="14.00">confirmation_token :string</text>
<text text-anchor="start" x="310" y="-648.3" font-family="Times,serif" font-size="14.00">confirmed_at :datetime</text>
<text text-anchor="start" x="310" y="-633.3" font-family="Times,serif" font-size="14.00">confirmation_sent_at :datetime</text>
<text text-anchor="start" x="310" y="-618.3" font-family="Times,serif" font-size="14.00">failed_attempts :integer</text>
<text text-anchor="start" x="310" y="-603.3" font-family="Times,serif" font-size="14.00">unlock_token :string</text>
<text text-anchor="start" x="310" y="-588.3" font-family="Times,serif" font-size="14.00">locked_at :datetime</text>
<text text-anchor="start" x="310" y="-573.3" font-family="Times,serif" font-size="14.00">created_at :datetime</text>
<text text-anchor="start" x="310" y="-558.3" font-family="Times,serif" font-size="14.00">updated_at :datetime</text>
<text text-anchor="start" x="310" y="-543.3" font-family="Times,serif" font-size="14.00">lang :string</text>
<text text-anchor="start" x="310" y="-528.3" font-family="Times,serif" font-size="14.00">enabled :boolean</text>
</g>
<!-- Role&#45;&gt;User -->
<g id="edge20" class="edge"><title>Role&#45;&gt;User</title>
<path fill="none" stroke="black" d="M345.517,-990.547C351.574,-956.802 360.118,-909.2 368.648,-861.678"/>
<polygon fill="black" stroke="black" points="345.449,-990.926 339.253,-999.974 344.566,-995.848 343.682,-1000.77 343.682,-1000.77 343.682,-1000.77 344.566,-995.848 348.112,-1001.56 345.449,-990.926 345.449,-990.926"/>
<polygon fill="black" stroke="black" points="368.7,-861.386 374.896,-852.339 369.583,-856.465 370.467,-851.544 370.467,-851.544 370.467,-851.544 369.583,-856.465 366.037,-850.749 368.7,-861.386 368.7,-861.386"/>
</g>
<!-- Setting -->
<g id="node15" class="node"><title>Setting</title>
<polyline fill="none" stroke="black" points="1270.5,-941 1419.5,-941 "/>
<path fill="none" stroke="black" d="M1419.5,-941C1425.5,-941 1431.5,-947 1431.5,-953"/>
<polyline fill="none" stroke="black" points="1431.5,-953 1431.5,-1125 "/>
<path fill="none" stroke="black" d="M1431.5,-1125C1431.5,-1131 1425.5,-1137 1419.5,-1137"/>
<polyline fill="none" stroke="black" points="1419.5,-1137 1270.5,-1137 "/>
<path fill="none" stroke="black" d="M1270.5,-1137C1264.5,-1137 1258.5,-1131 1258.5,-1125"/>
<polyline fill="none" stroke="black" points="1258.5,-1125 1258.5,-953 "/>
<path fill="none" stroke="black" d="M1258.5,-953C1258.5,-947 1264.5,-941 1270.5,-941"/>
<text text-anchor="middle" x="1345" y="-1121.8" font-family="Times,serif" font-size="14.00">Setting</text>
<polyline fill="none" stroke="black" points="1258.5,-1114 1431.5,-1114 "/>
<text text-anchor="start" x="1266.5" y="-1098.8" font-family="Times,serif" font-size="14.00">site_name :string</text>
<text text-anchor="start" x="1266.5" y="-1083.8" font-family="Times,serif" font-size="14.00">site_page_title :string</text>
<text text-anchor="start" x="1266.5" y="-1068.8" font-family="Times,serif" font-size="14.00">site_keywords :string</text>
<text text-anchor="start" x="1266.5" y="-1053.8" font-family="Times,serif" font-size="14.00">site_desc :string</text>
<text text-anchor="start" x="1266.5" y="-1038.8" font-family="Times,serif" font-size="14.00">default_lang :string</text>
<text text-anchor="start" x="1266.5" y="-1023.8" font-family="Times,serif" font-size="14.00">site_base_url :string</text>
<text text-anchor="start" x="1266.5" y="-1008.8" font-family="Times,serif" font-size="14.00">analytics :string</text>
<text text-anchor="start" x="1266.5" y="-993.8" font-family="Times,serif" font-size="14.00">created_at :datetime</text>
<text text-anchor="start" x="1266.5" y="-978.8" font-family="Times,serif" font-size="14.00">updated_at :datetime</text>
<text text-anchor="start" x="1266.5" y="-963.8" font-family="Times,serif" font-size="14.00">theme_name :string</text>
<text text-anchor="start" x="1266.5" y="-948.8" font-family="Times,serif" font-size="14.00">frontend_controls :boolean</text>
</g>
<!-- Snippet&#45;&gt;Association -->
<g id="edge22" class="edge"><title>Snippet&#45;&gt;Association</title>
<path fill="none" stroke="black" d="M686.762,-557.327C670.027,-499.949 651.346,-435.901 639.172,-394.161"/>
<ellipse fill="none" stroke="black" cx="687.915" cy="-561.279" rx="4.00001" ry="4.00001"/>
<ellipse fill="black" stroke="black" cx="638.022" cy="-390.217" rx="4.00001" ry="4.00001"/>
</g>
<!-- Snippet&#45;&gt;Page -->
<g id="edge24" class="edge"><title>Snippet&#45;&gt;Page</title>
<path fill="none" stroke="black" d="M730.522,-814.713C730.73,-836.04 730.796,-858.387 730.719,-880.356"/>
<ellipse fill="none" stroke="black" cx="730.479" cy="-810.592" rx="4" ry="4"/>
<ellipse fill="black" stroke="black" cx="730.702" cy="-884.381" rx="4" ry="4"/>
</g>
<!-- SnippetComponent -->
<g id="node32" class="node"><title>SnippetComponent</title>
<ellipse fill="none" stroke="black" cx="795" cy="-348" rx="83.2649" ry="18"/>
<text text-anchor="middle" x="795" y="-344.3" font-family="Times,serif" font-size="14.00">SnippetComponent</text>
</g>
<!-- Snippet&#45;&gt;SnippetComponent -->
<g id="edge26" class="edge"><title>Snippet&#45;&gt;SnippetComponent</title>
<path fill="none" stroke="black" d="M751.001,-557.22C765.07,-490.641 781.03,-415.109 789.321,-375.877"/>
<ellipse fill="none" stroke="black" cx="750.159" cy="-561.206" rx="4.00001" ry="4.00001"/>
<polygon fill="black" stroke="black" points="789.332,-375.821 795.803,-366.967 790.366,-370.929 791.4,-366.037 791.4,-366.037 791.4,-366.037 790.366,-370.929 786.997,-365.106 789.332,-375.821 789.332,-375.821"/>
</g>
<!-- Theme -->
<g id="node17" class="node"><title>Theme</title>
<polygon fill="none" stroke="black" points="1450,-1016 1450,-1062 1506,-1062 1506,-1016 1450,-1016"/>
<text text-anchor="middle" x="1478" y="-1046.8" font-family="Times,serif" font-size="14.00">Theme</text>
<polyline fill="none" stroke="black" points="1450,-1039 1506,-1039 "/>
<text text-anchor="middle" x="1478" y="-1023.8" font-family="Times,serif" font-size="14.00"> </text>
</g>
<!-- User&#45;&gt;Article -->
<g id="edge30" class="edge"><title>User&#45;&gt;Article</title>
<path fill="none" stroke="black" d="M425.689,-512.37C426.605,-506.212 427.52,-500.063 428.429,-493.956"/>
<ellipse fill="none" stroke="black" cx="425.076" cy="-516.489" rx="4.00001" ry="4.00001"/>
<polygon fill="black" stroke="black" points="428.48,-493.613 434.403,-484.385 429.216,-488.668 429.952,-483.722 429.952,-483.722 429.952,-483.722 429.216,-488.668 425.501,-483.06 428.48,-493.613 428.48,-493.613"/>
</g>
<!-- User&#45;&gt;Grade -->
<g id="edge28" class="edge"><title>User&#45;&gt;Grade</title>
<path fill="none" stroke="black" d="M335.424,-512.798C317.89,-466.04 300.519,-419.717 288.748,-388.327"/>
<ellipse fill="none" stroke="black" cx="336.887" cy="-516.7" rx="4.00001" ry="4.00001"/>
<polygon fill="black" stroke="black" points="288.641,-388.042 289.343,-377.099 286.885,-383.361 285.13,-378.679 285.13,-378.679 285.13,-378.679 286.885,-383.361 280.916,-380.259 288.641,-388.042 288.641,-388.042"/>
</g>
</g>
</svg>
